<?xml version="1.0" encoding="utf-8"?>
<svg version="1.1" xmlns:xlink="http://www.w3.org/1999/xlink" width="24px" height="20px" xmlns="http://www.w3.org/2000/svg">
  <defs>
    <pattern id="BGPattern" patternUnits="userSpaceOnUse" alignment="0 0" imageRepeat="None" />
    <mask fill="white" id="Clip552">
      <path d="M 23.033653846153847 6.633522727272727  C 23.677884615384617 7.959280303030303  24 9.337121212121211  24 10.767045454545453  C 24 12.339015151515152  23.711538461538463 13.825757575757574  23.134615384615387 15.227272727272727  L 22.846153846153847 15.923295454545453  L 20.177884615384613 16.392045454545453  C 19.966346153846157 17.178030303030305  19.53125 17.824337121212118  18.872596153846153 18.330965909090907  C 18.21394230769231 18.837594696969695  17.461538461538463 19.090909090909093  16.615384615384613 19.090909090909093  L 16.615384615384613 19.545454545454547  C 16.615384615384613 19.678030303030305  16.572115384615387 19.78693181818182  16.485576923076923 19.872159090909093  C 16.399038461538463 19.957386363636363  16.28846153846154 20  16.153846153846153 20  L 15.23076923076923 20  C 15.096153846153848 20  14.985576923076923 19.957386363636363  14.899038461538463 19.872159090909093  C 14.8125 19.78693181818182  14.76923076923077 19.678030303030305  14.76923076923077 19.545454545454547  L 14.76923076923077 11.363636363636363  C 14.76923076923077 11.231060606060606  14.8125 11.122159090909092  14.899038461538463 11.036931818181817  C 14.985576923076923 10.951704545454547  15.096153846153848 10.909090909090908  15.23076923076923 10.909090909090908  L 16.153846153846153 10.909090909090908  C 16.28846153846154 10.909090909090908  16.399038461538463 10.951704545454547  16.485576923076923 11.036931818181817  C 16.572115384615387 11.122159090909092  16.615384615384613 11.231060606060606  16.615384615384613 11.363636363636363  L 16.615384615384613 11.818181818181817  C 17.298076923076923 11.818181818181817  17.923076923076923 11.986268939393938  18.490384615384613 12.322443181818183  C 19.05769230769231 12.658617424242422  19.504807692307693 13.110795454545453  19.83173076923077 13.678977272727273  L 20.8125 13.508522727272727  C 21.091346153846157 12.608901515151514  21.23076923076923 11.695075757575758  21.23076923076923 10.767045454545453  C 21.23076923076923 9.365530303030303  20.807692307692307 8.044507575757576  19.961538461538463 6.803977272727273  C 19.115384615384617 5.563446969696971  17.978365384615387 4.573863636363635  16.55048076923077 3.835227272727273  C 15.122596153846155 3.0965909090909083  13.605769230769232 2.727272727272727  12 2.727272727272727  C 10.39423076923077 2.727272727272727  8.877403846153847 3.0965909090909083  7.449519230769232 3.835227272727273  C 6.021634615384615 4.573863636363635  4.884615384615385 5.563446969696971  4.038461538461538 6.803977272727273  C 3.1923076923076925 8.044507575757576  2.769230769230769 9.365530303030303  2.769230769230769 10.767045454545453  C 2.769230769230769 11.695075757575758  2.9086538461538463 12.608901515151514  3.1875 13.508522727272727  L 4.168269230769231 13.678977272727273  C 4.4951923076923075 13.110795454545453  4.9423076923076925 12.658617424242422  5.509615384615384 12.322443181818183  C 6.076923076923078 11.986268939393938  6.701923076923078 11.818181818181817  7.384615384615385 11.818181818181817  L 7.384615384615385 11.363636363636363  C 7.384615384615385 11.231060606060606  7.427884615384615 11.122159090909092  7.5144230769230775 11.036931818181817  C 7.600961538461538 10.951704545454547  7.711538461538462 10.909090909090908  7.846153846153847 10.909090909090908  L 8.769230769230768 10.909090909090908  C 8.903846153846153 10.909090909090908  9.014423076923077 10.951704545454547  9.100961538461538 11.036931818181817  C 9.1875 11.122159090909092  9.230769230769232 11.231060606060606  9.230769230769232 11.363636363636363  L 9.230769230769232 19.545454545454547  C 9.230769230769232 19.678030303030305  9.1875 19.78693181818182  9.100961538461538 19.872159090909093  C 9.014423076923077 19.957386363636363  8.903846153846153 20  8.769230769230768 20  L 7.846153846153847 20  C 7.711538461538462 20  7.600961538461538 19.957386363636363  7.5144230769230775 19.872159090909093  C 7.427884615384615 19.78693181818182  7.384615384615385 19.678030303030305  7.384615384615385 19.545454545454547  L 7.384615384615385 19.090909090909093  C 6.538461538461539 19.090909090909093  5.7860576923076925 18.837594696969695  5.127403846153847 18.330965909090907  C 4.46875 17.824337121212118  4.033653846153847 17.178030303030305  3.822115384615384 16.392045454545453  L 1.153846153846154 15.923295454545453  L 0.8653846153846153 15.227272727272727  C 0.2884615384615385 13.825757575757574  0 12.339015151515152  0 10.767045454545453  C 0 9.337121212121211  0.3221153846153846 7.959280303030303  0.966346153846154 6.633522727272727  C 1.610576923076923 5.307765151515149  2.4711538461538463 4.159564393939393  3.5480769230769234 3.188920454545454  C 4.625 2.218276515151514  5.903846153846154 1.4441287878787867  7.384615384615385 0.8664772727272729  C 8.865384615384617 0.2888257575757569  10.403846153846153 0  12 0  C 13.596153846153848 0  15.134615384615387 0.2888257575757569  16.615384615384613 0.8664772727272729  C 18.096153846153847 1.4441287878787867  19.375 2.218276515151514  20.451923076923077 3.188920454545454  C 21.528846153846157 4.159564393939393  22.38942307692308 5.307765151515149  23.033653846153847 6.633522727272727  Z " fill-rule="evenodd" />
    </mask>
  </defs>
  <g transform="matrix(1 0 0 1 -489 -814 )">
    <path d="M 23.033653846153847 6.633522727272727  C 23.677884615384617 7.959280303030303  24 9.337121212121211  24 10.767045454545453  C 24 12.339015151515152  23.711538461538463 13.825757575757574  23.134615384615387 15.227272727272727  L 22.846153846153847 15.923295454545453  L 20.177884615384613 16.392045454545453  C 19.966346153846157 17.178030303030305  19.53125 17.824337121212118  18.872596153846153 18.330965909090907  C 18.21394230769231 18.837594696969695  17.461538461538463 19.090909090909093  16.615384615384613 19.090909090909093  L 16.615384615384613 19.545454545454547  C 16.615384615384613 19.678030303030305  16.572115384615387 19.78693181818182  16.485576923076923 19.872159090909093  C 16.399038461538463 19.957386363636363  16.28846153846154 20  16.153846153846153 20  L 15.23076923076923 20  C 15.096153846153848 20  14.985576923076923 19.957386363636363  14.899038461538463 19.872159090909093  C 14.8125 19.78693181818182  14.76923076923077 19.678030303030305  14.76923076923077 19.545454545454547  L 14.76923076923077 11.363636363636363  C 14.76923076923077 11.231060606060606  14.8125 11.122159090909092  14.899038461538463 11.036931818181817  C 14.985576923076923 10.951704545454547  15.096153846153848 10.909090909090908  15.23076923076923 10.909090909090908  L 16.153846153846153 10.909090909090908  C 16.28846153846154 10.909090909090908  16.399038461538463 10.951704545454547  16.485576923076923 11.036931818181817  C 16.572115384615387 11.122159090909092  16.615384615384613 11.231060606060606  16.615384615384613 11.363636363636363  L 16.615384615384613 11.818181818181817  C 17.298076923076923 11.818181818181817  17.923076923076923 11.986268939393938  18.490384615384613 12.322443181818183  C 19.05769230769231 12.658617424242422  19.504807692307693 13.110795454545453  19.83173076923077 13.678977272727273  L 20.8125 13.508522727272727  C 21.091346153846157 12.608901515151514  21.23076923076923 11.695075757575758  21.23076923076923 10.767045454545453  C 21.23076923076923 9.365530303030303  20.807692307692307 8.044507575757576  19.961538461538463 6.803977272727273  C 19.115384615384617 5.563446969696971  17.978365384615387 4.573863636363635  16.55048076923077 3.835227272727273  C 15.122596153846155 3.0965909090909083  13.605769230769232 2.727272727272727  12 2.727272727272727  C 10.39423076923077 2.727272727272727  8.877403846153847 3.0965909090909083  7.449519230769232 3.835227272727273  C 6.021634615384615 4.573863636363635  4.884615384615385 5.563446969696971  4.038461538461538 6.803977272727273  C 3.1923076923076925 8.044507575757576  2.769230769230769 9.365530303030303  2.769230769230769 10.767045454545453  C 2.769230769230769 11.695075757575758  2.9086538461538463 12.608901515151514  3.1875 13.508522727272727  L 4.168269230769231 13.678977272727273  C 4.4951923076923075 13.110795454545453  4.9423076923076925 12.658617424242422  5.509615384615384 12.322443181818183  C 6.076923076923078 11.986268939393938  6.701923076923078 11.818181818181817  7.384615384615385 11.818181818181817  L 7.384615384615385 11.363636363636363  C 7.384615384615385 11.231060606060606  7.427884615384615 11.122159090909092  7.5144230769230775 11.036931818181817  C 7.600961538461538 10.951704545454547  7.711538461538462 10.909090909090908  7.846153846153847 10.909090909090908  L 8.769230769230768 10.909090909090908  C 8.903846153846153 10.909090909090908  9.014423076923077 10.951704545454547  9.100961538461538 11.036931818181817  C 9.1875 11.122159090909092  9.230769230769232 11.231060606060606  9.230769230769232 11.363636363636363  L 9.230769230769232 19.545454545454547  C 9.230769230769232 19.678030303030305  9.1875 19.78693181818182  9.100961538461538 19.872159090909093  C 9.014423076923077 19.957386363636363  8.903846153846153 20  8.769230769230768 20  L 7.846153846153847 20  C 7.711538461538462 20  7.600961538461538 19.957386363636363  7.5144230769230775 19.872159090909093  C 7.427884615384615 19.78693181818182  7.384615384615385 19.678030303030305  7.384615384615385 19.545454545454547  L 7.384615384615385 19.090909090909093  C 6.538461538461539 19.090909090909093  5.7860576923076925 18.837594696969695  5.127403846153847 18.330965909090907  C 4.46875 17.824337121212118  4.033653846153847 17.178030303030305  3.822115384615384 16.392045454545453  L 1.153846153846154 15.923295454545453  L 0.8653846153846153 15.227272727272727  C 0.2884615384615385 13.825757575757574  0 12.339015151515152  0 10.767045454545453  C 0 9.337121212121211  0.3221153846153846 7.959280303030303  0.966346153846154 6.633522727272727  C 1.610576923076923 5.307765151515149  2.4711538461538463 4.159564393939393  3.5480769230769234 3.188920454545454  C 4.625 2.218276515151514  5.903846153846154 1.4441287878787867  7.384615384615385 0.8664772727272729  C 8.865384615384617 0.2888257575757569  10.403846153846153 0  12 0  C 13.596153846153848 0  15.134615384615387 0.2888257575757569  16.615384615384613 0.8664772727272729  C 18.096153846153847 1.4441287878787867  19.375 2.218276515151514  20.451923076923077 3.188920454545454  C 21.528846153846157 4.159564393939393  22.38942307692308 5.307765151515149  23.033653846153847 6.633522727272727  Z " fill-rule="nonzero" fill="rgba(255, 255, 255, 1)" stroke="none" transform="matrix(1 0 0 1 489 814 )" class="fill" />
    <path d="M 23.033653846153847 6.633522727272727  C 23.677884615384617 7.959280303030303  24 9.337121212121211  24 10.767045454545453  C 24 12.339015151515152  23.711538461538463 13.825757575757574  23.134615384615387 15.227272727272727  L 22.846153846153847 15.923295454545453  L 20.177884615384613 16.392045454545453  C 19.966346153846157 17.178030303030305  19.53125 17.824337121212118  18.872596153846153 18.330965909090907  C 18.21394230769231 18.837594696969695  17.461538461538463 19.090909090909093  16.615384615384613 19.090909090909093  L 16.615384615384613 19.545454545454547  C 16.615384615384613 19.678030303030305  16.572115384615387 19.78693181818182  16.485576923076923 19.872159090909093  C 16.399038461538463 19.957386363636363  16.28846153846154 20  16.153846153846153 20  L 15.23076923076923 20  C 15.096153846153848 20  14.985576923076923 19.957386363636363  14.899038461538463 19.872159090909093  C 14.8125 19.78693181818182  14.76923076923077 19.678030303030305  14.76923076923077 19.545454545454547  L 14.76923076923077 11.363636363636363  C 14.76923076923077 11.231060606060606  14.8125 11.122159090909092  14.899038461538463 11.036931818181817  C 14.985576923076923 10.951704545454547  15.096153846153848 10.909090909090908  15.23076923076923 10.909090909090908  L 16.153846153846153 10.909090909090908  C 16.28846153846154 10.909090909090908  16.399038461538463 10.951704545454547  16.485576923076923 11.036931818181817  C 16.572115384615387 11.122159090909092  16.615384615384613 11.231060606060606  16.615384615384613 11.363636363636363  L 16.615384615384613 11.818181818181817  C 17.298076923076923 11.818181818181817  17.923076923076923 11.986268939393938  18.490384615384613 12.322443181818183  C 19.05769230769231 12.658617424242422  19.504807692307693 13.110795454545453  19.83173076923077 13.678977272727273  L 20.8125 13.508522727272727  C 21.091346153846157 12.608901515151514  21.23076923076923 11.695075757575758  21.23076923076923 10.767045454545453  C 21.23076923076923 9.365530303030303  20.807692307692307 8.044507575757576  19.961538461538463 6.803977272727273  C 19.115384615384617 5.563446969696971  17.978365384615387 4.573863636363635  16.55048076923077 3.835227272727273  C 15.122596153846155 3.0965909090909083  13.605769230769232 2.727272727272727  12 2.727272727272727  C 10.39423076923077 2.727272727272727  8.877403846153847 3.0965909090909083  7.449519230769232 3.835227272727273  C 6.021634615384615 4.573863636363635  4.884615384615385 5.563446969696971  4.038461538461538 6.803977272727273  C 3.1923076923076925 8.044507575757576  2.769230769230769 9.365530303030303  2.769230769230769 10.767045454545453  C 2.769230769230769 11.695075757575758  2.9086538461538463 12.608901515151514  3.1875 13.508522727272727  L 4.168269230769231 13.678977272727273  C 4.4951923076923075 13.110795454545453  4.9423076923076925 12.658617424242422  5.509615384615384 12.322443181818183  C 6.076923076923078 11.986268939393938  6.701923076923078 11.818181818181817  7.384615384615385 11.818181818181817  L 7.384615384615385 11.363636363636363  C 7.384615384615385 11.231060606060606  7.427884615384615 11.122159090909092  7.5144230769230775 11.036931818181817  C 7.600961538461538 10.951704545454547  7.711538461538462 10.909090909090908  7.846153846153847 10.909090909090908  L 8.769230769230768 10.909090909090908  C 8.903846153846153 10.909090909090908  9.014423076923077 10.951704545454547  9.100961538461538 11.036931818181817  C 9.1875 11.122159090909092  9.230769230769232 11.231060606060606  9.230769230769232 11.363636363636363  L 9.230769230769232 19.545454545454547  C 9.230769230769232 19.678030303030305  9.1875 19.78693181818182  9.100961538461538 19.872159090909093  C 9.014423076923077 19.957386363636363  8.903846153846153 20  8.769230769230768 20  L 7.846153846153847 20  C 7.711538461538462 20  7.600961538461538 19.957386363636363  7.5144230769230775 19.872159090909093  C 7.427884615384615 19.78693181818182  7.384615384615385 19.678030303030305  7.384615384615385 19.545454545454547  L 7.384615384615385 19.090909090909093  C 6.538461538461539 19.090909090909093  5.7860576923076925 18.837594696969695  5.127403846153847 18.330965909090907  C 4.46875 17.824337121212118  4.033653846153847 17.178030303030305  3.822115384615384 16.392045454545453  L 1.153846153846154 15.923295454545453  L 0.8653846153846153 15.227272727272727  C 0.2884615384615385 13.825757575757574  0 12.339015151515152  0 10.767045454545453  C 0 9.337121212121211  0.3221153846153846 7.959280303030303  0.966346153846154 6.633522727272727  C 1.610576923076923 5.307765151515149  2.4711538461538463 4.159564393939393  3.5480769230769234 3.188920454545454  C 4.625 2.218276515151514  5.903846153846154 1.4441287878787867  7.384615384615385 0.8664772727272729  C 8.865384615384617 0.2888257575757569  10.403846153846153 0  12 0  C 13.596153846153848 0  15.134615384615387 0.2888257575757569  16.615384615384613 0.8664772727272729  C 18.096153846153847 1.4441287878787867  19.375 2.218276515151514  20.451923076923077 3.188920454545454  C 21.528846153846157 4.159564393939393  22.38942307692308 5.307765151515149  23.033653846153847 6.633522727272727  Z " stroke-width="0" stroke-dasharray="0" stroke="rgba(255, 255, 255, 0)" fill="none" transform="matrix(1 0 0 1 489 814 )" class="stroke" mask="url(#Clip552)" />
  </g>
</svg>