<?xml version="1.0" encoding="utf-8"?>
<svg version="1.1" xmlns:xlink="http://www.w3.org/1999/xlink" width="10px" height="10px" xmlns="http://www.w3.org/2000/svg">
  <defs>
    <pattern id="BGPattern" patternUnits="userSpaceOnUse" alignment="0 0" imageRepeat="None" />
    <mask fill="white" id="Clip553">
      <path d="M 7.356770833333334 6.770833333333332  C 7.439236111111112 6.688368055555555  7.48046875 6.588541666666668  7.48046875 6.471354166666668  C 7.48046875 6.358506944444445  7.439236111111112 6.260850694444445  7.356770833333334 6.178385416666668  L 6.178385416666666 5  L 7.356770833333334 3.821614583333334  C 7.439236111111112 3.7391493055555545  7.48046875 3.6414930555555545  7.48046875 3.528645833333334  C 7.48046875 3.411458333333334  7.439236111111112 3.311631944444443  7.356770833333334 3.229166666666666  L 6.770833333333334 2.643229166666666  C 6.688368055555557 2.5607638888888884  6.588541666666666 2.51953125  6.471354166666666 2.51953125  C 6.3585069444444455 2.51953125  6.2608506944444455 2.5607638888888884  6.178385416666666 2.643229166666666  L 5 3.821614583333334  L 3.821614583333333 2.643229166666666  C 3.739149305555556 2.5607638888888884  3.641493055555556 2.51953125  3.528645833333333 2.51953125  C 3.411458333333333 2.51953125  3.3116319444444446 2.5607638888888884  3.229166666666667 2.643229166666666  L 2.643229166666667 3.229166666666666  C 2.560763888888889 3.311631944444443  2.5195312500000004 3.411458333333334  2.51953125 3.528645833333334  C 2.5195312500000004 3.6414930555555545  2.560763888888889 3.7391493055555545  2.643229166666667 3.821614583333334  L 3.821614583333333 5  L 2.643229166666667 6.178385416666668  C 2.560763888888889 6.260850694444445  2.5195312500000004 6.358506944444445  2.51953125 6.471354166666668  C 2.5195312500000004 6.588541666666668  2.560763888888889 6.688368055555555  2.643229166666667 6.770833333333332  L 3.229166666666667 7.356770833333332  C 3.3116319444444446 7.439236111111109  3.411458333333333 7.48046875  3.528645833333333 7.48046875  C 3.641493055555556 7.48046875  3.739149305555556 7.439236111111109  3.821614583333333 7.356770833333332  L 5 6.178385416666668  L 6.178385416666666 7.356770833333332  C 6.2608506944444455 7.439236111111109  6.3585069444444455 7.48046875  6.471354166666666 7.48046875  C 6.588541666666666 7.48046875  6.688368055555557 7.439236111111109  6.770833333333334 7.356770833333332  L 7.356770833333334 6.770833333333332  Z M 9.329427083333334 2.490234375  C 9.776475694444443 3.256293402777777  10 4.092881944444443  10 5  C 10 5.907118055555555  9.776475694444443 6.743706597222221  9.329427083333334 7.509765625  C 8.882378472222223 8.275824652777779  8.275824652777779 8.882378472222221  7.509765625 9.329427083333334  C 6.743706597222223 9.776475694444445  5.907118055555555 10  5 10  C 4.092881944444445 10  3.2562934027777777 9.776475694444445  2.490234375 9.329427083333334  C 1.7241753472222223 8.882378472222221  1.117621527777778 8.275824652777779  0.6705729166666667 7.509765625  C 0.22352430555555552 6.743706597222221  0 5.907118055555555  0 5  C 0 4.092881944444443  0.22352430555555552 3.256293402777777  0.6705729166666667 2.490234375  C 1.117621527777778 1.724175347222222  1.7241753472222223 1.1176215277777768  2.490234375 0.6705729166666663  C 3.2562934027777777 0.2235243055555547  4.092881944444445 0  5 0  C 5.907118055555555 0  6.743706597222223 0.2235243055555547  7.509765625 0.6705729166666663  C 8.275824652777779 1.1176215277777768  8.882378472222223 1.724175347222222  9.329427083333334 2.490234375  Z " fill-rule="evenodd" />
    </mask>
  </defs>
  <g transform="matrix(1 0 0 1 -385 -42 )">
    <path d="M 7.356770833333334 6.770833333333332  C 7.439236111111112 6.688368055555555  7.48046875 6.588541666666668  7.48046875 6.471354166666668  C 7.48046875 6.358506944444445  7.439236111111112 6.260850694444445  7.356770833333334 6.178385416666668  L 6.178385416666666 5  L 7.356770833333334 3.821614583333334  C 7.439236111111112 3.7391493055555545  7.48046875 3.6414930555555545  7.48046875 3.528645833333334  C 7.48046875 3.411458333333334  7.439236111111112 3.311631944444443  7.356770833333334 3.229166666666666  L 6.770833333333334 2.643229166666666  C 6.688368055555557 2.5607638888888884  6.588541666666666 2.51953125  6.471354166666666 2.51953125  C 6.3585069444444455 2.51953125  6.2608506944444455 2.5607638888888884  6.178385416666666 2.643229166666666  L 5 3.821614583333334  L 3.821614583333333 2.643229166666666  C 3.739149305555556 2.5607638888888884  3.641493055555556 2.51953125  3.528645833333333 2.51953125  C 3.411458333333333 2.51953125  3.3116319444444446 2.5607638888888884  3.229166666666667 2.643229166666666  L 2.643229166666667 3.229166666666666  C 2.560763888888889 3.311631944444443  2.5195312500000004 3.411458333333334  2.51953125 3.528645833333334  C 2.5195312500000004 3.6414930555555545  2.560763888888889 3.7391493055555545  2.643229166666667 3.821614583333334  L 3.821614583333333 5  L 2.643229166666667 6.178385416666668  C 2.560763888888889 6.260850694444445  2.5195312500000004 6.358506944444445  2.51953125 6.471354166666668  C 2.5195312500000004 6.588541666666668  2.560763888888889 6.688368055555555  2.643229166666667 6.770833333333332  L 3.229166666666667 7.356770833333332  C 3.3116319444444446 7.439236111111109  3.411458333333333 7.48046875  3.528645833333333 7.48046875  C 3.641493055555556 7.48046875  3.739149305555556 7.439236111111109  3.821614583333333 7.356770833333332  L 5 6.178385416666668  L 6.178385416666666 7.356770833333332  C 6.2608506944444455 7.439236111111109  6.3585069444444455 7.48046875  6.471354166666666 7.48046875  C 6.588541666666666 7.48046875  6.688368055555557 7.439236111111109  6.770833333333334 7.356770833333332  L 7.356770833333334 6.770833333333332  Z M 9.329427083333334 2.490234375  C 9.776475694444443 3.256293402777777  10 4.092881944444443  10 5  C 10 5.907118055555555  9.776475694444443 6.743706597222221  9.329427083333334 7.509765625  C 8.882378472222223 8.275824652777779  8.275824652777779 8.882378472222221  7.509765625 9.329427083333334  C 6.743706597222223 9.776475694444445  5.907118055555555 10  5 10  C 4.092881944444445 10  3.2562934027777777 9.776475694444445  2.490234375 9.329427083333334  C 1.7241753472222223 8.882378472222221  1.117621527777778 8.275824652777779  0.6705729166666667 7.509765625  C 0.22352430555555552 6.743706597222221  0 5.907118055555555  0 5  C 0 4.092881944444443  0.22352430555555552 3.256293402777777  0.6705729166666667 2.490234375  C 1.117621527777778 1.724175347222222  1.7241753472222223 1.1176215277777768  2.490234375 0.6705729166666663  C 3.2562934027777777 0.2235243055555547  4.092881944444445 0  5 0  C 5.907118055555555 0  6.743706597222223 0.2235243055555547  7.509765625 0.6705729166666663  C 8.275824652777779 1.1176215277777768  8.882378472222223 1.724175347222222  9.329427083333334 2.490234375  Z " fill-rule="nonzero" fill="rgba(242, 242, 242, 1)" stroke="none" transform="matrix(1 0 0 1 385 42 )" class="fill" />
    <path d="M 7.356770833333334 6.770833333333332  C 7.439236111111112 6.688368055555555  7.48046875 6.588541666666668  7.48046875 6.471354166666668  C 7.48046875 6.358506944444445  7.439236111111112 6.260850694444445  7.356770833333334 6.178385416666668  L 6.178385416666666 5  L 7.356770833333334 3.821614583333334  C 7.439236111111112 3.7391493055555545  7.48046875 3.6414930555555545  7.48046875 3.528645833333334  C 7.48046875 3.411458333333334  7.439236111111112 3.311631944444443  7.356770833333334 3.229166666666666  L 6.770833333333334 2.643229166666666  C 6.688368055555557 2.5607638888888884  6.588541666666666 2.51953125  6.471354166666666 2.51953125  C 6.3585069444444455 2.51953125  6.2608506944444455 2.5607638888888884  6.178385416666666 2.643229166666666  L 5 3.821614583333334  L 3.821614583333333 2.643229166666666  C 3.739149305555556 2.5607638888888884  3.641493055555556 2.51953125  3.528645833333333 2.51953125  C 3.411458333333333 2.51953125  3.3116319444444446 2.5607638888888884  3.229166666666667 2.643229166666666  L 2.643229166666667 3.229166666666666  C 2.560763888888889 3.311631944444443  2.5195312500000004 3.411458333333334  2.51953125 3.528645833333334  C 2.5195312500000004 3.6414930555555545  2.560763888888889 3.7391493055555545  2.643229166666667 3.821614583333334  L 3.821614583333333 5  L 2.643229166666667 6.178385416666668  C 2.560763888888889 6.260850694444445  2.5195312500000004 6.358506944444445  2.51953125 6.471354166666668  C 2.5195312500000004 6.588541666666668  2.560763888888889 6.688368055555555  2.643229166666667 6.770833333333332  L 3.229166666666667 7.356770833333332  C 3.3116319444444446 7.439236111111109  3.411458333333333 7.48046875  3.528645833333333 7.48046875  C 3.641493055555556 7.48046875  3.739149305555556 7.439236111111109  3.821614583333333 7.356770833333332  L 5 6.178385416666668  L 6.178385416666666 7.356770833333332  C 6.2608506944444455 7.439236111111109  6.3585069444444455 7.48046875  6.471354166666666 7.48046875  C 6.588541666666666 7.48046875  6.688368055555557 7.439236111111109  6.770833333333334 7.356770833333332  L 7.356770833333334 6.770833333333332  Z " stroke-width="0" stroke-dasharray="0" stroke="rgba(255, 255, 255, 0)" fill="none" transform="matrix(1 0 0 1 385 42 )" class="stroke" mask="url(#Clip553)" />
    <path d="M 9.329427083333334 2.490234375  C 9.776475694444443 3.256293402777777  10 4.092881944444443  10 5  C 10 5.907118055555555  9.776475694444443 6.743706597222221  9.329427083333334 7.509765625  C 8.882378472222223 8.275824652777779  8.275824652777779 8.882378472222221  7.509765625 9.329427083333334  C 6.743706597222223 9.776475694444445  5.907118055555555 10  5 10  C 4.092881944444445 10  3.2562934027777777 9.776475694444445  2.490234375 9.329427083333334  C 1.7241753472222223 8.882378472222221  1.117621527777778 8.275824652777779  0.6705729166666667 7.509765625  C 0.22352430555555552 6.743706597222221  0 5.907118055555555  0 5  C 0 4.092881944444443  0.22352430555555552 3.256293402777777  0.6705729166666667 2.490234375  C 1.117621527777778 1.724175347222222  1.7241753472222223 1.1176215277777768  2.490234375 0.6705729166666663  C 3.2562934027777777 0.2235243055555547  4.092881944444445 0  5 0  C 5.907118055555555 0  6.743706597222223 0.2235243055555547  7.509765625 0.6705729166666663  C 8.275824652777779 1.1176215277777768  8.882378472222223 1.724175347222222  9.329427083333334 2.490234375  Z " stroke-width="0" stroke-dasharray="0" stroke="rgba(255, 255, 255, 0)" fill="none" transform="matrix(1 0 0 1 385 42 )" class="stroke" mask="url(#Clip553)" />
  </g>
</svg>