<?xml version="1.0" encoding="utf-8"?>
<svg version="1.1" xmlns:xlink="http://www.w3.org/1999/xlink" width="23px" height="23px" xmlns="http://www.w3.org/2000/svg">
  <defs>
    <pattern id="BGPattern" patternUnits="userSpaceOnUse" alignment="0 0" imageRepeat="None" />
    <mask fill="white" id="Clip554">
      <path d="M 16.42857142857143 4.928571428571429  L 21.767857142857142 4.928571428571429  C 22.110119047619047 4.928571428571429  22.401041666666668 5.048363095238094  22.640625 5.287946428571429  C 22.880208333333336 5.527529761904759  23 5.8184523809523805  23 6.1607142857142865  L 23 21.767857142857142  C 23 22.110119047619047  22.880208333333336 22.401041666666664  22.640625 22.640625  C 22.401041666666668 22.880208333333336  22.110119047619047 23  21.767857142857142 23  L 9.446428571428571 23  C 9.104166666666668 23  8.813244047619047 22.880208333333336  8.573660714285715 22.640625  C 8.334077380952381 22.401041666666664  8.214285714285715 22.110119047619047  8.214285714285715 21.767857142857142  L 8.214285714285715 18.07142857142857  L 1.232142857142857 18.07142857142857  C 0.8898809523809526 18.07142857142857  0.5989583333333334 17.951636904761905  0.359375 17.71205357142857  C 0.11979166666666666 17.472470238095237  0 17.18154761904762  0 16.839285714285715  L 0 8.214285714285714  C 0 7.872023809523809  0.08556547619047619 7.4955357142857135  0.2566964285714286 7.084821428571429  C 0.42782738095238093 6.674107142857142  0.6331845238095238 6.348958333333332  0.8727678571428571 6.109375  L 6.109375 0.8727678571428579  C 6.348958333333334 0.6331845238095228  6.674107142857143 0.4278273809523807  7.084821428571429 0.25669642857142894  C 7.495535714285714 0.08556547619047716  7.872023809523809 0  8.214285714285715 0  L 13.553571428571429 0  C 13.895833333333336 0  14.186755952380954 0.11979166666666752  14.426339285714286 0.359375  C 14.665922619047619 0.5989583333333325  14.785714285714286 0.8898809523809518  14.785714285714286 1.2321428571428579  L 14.785714285714286 5.4419642857142865  C 15.367559523809526 5.0997023809523805  15.915178571428571 4.928571428571429  16.42857142857143 4.928571428571429  Z M 14.785714285714286 11.5  L 14.785714285714286 7.662388392857142  L 10.948102678571429 11.5  L 14.785714285714286 11.5  Z M 6.571428571428571 6.571428571428571  L 6.571428571428571 2.733816964285713  L 2.733816964285714 6.571428571428571  L 6.571428571428571 6.571428571428571  Z M 8.470982142857144 12.013392857142858  C 8.642113095238095 11.602678571428571  8.847470238095239 11.277529761904761  9.087053571428571 11.037946428571429  L 13.142857142857142 6.982142857142858  L 13.142857142857142 1.6428571428571421  L 8.214285714285715 1.6428571428571421  L 8.214285714285715 6.982142857142858  C 8.214285714285715 7.324404761904759  8.094494047619047 7.6153273809523805  7.854910714285714 7.8549107142857135  C 7.615327380952382 8.094494047619046  7.324404761904763 8.214285714285714  6.982142857142857 8.214285714285714  L 1.6428571428571428 8.214285714285714  L 1.6428571428571428 16.42857142857143  L 8.214285714285715 16.42857142857143  L 8.214285714285715 13.142857142857142  C 8.214285714285715 12.800595238095239  8.299851190476192 12.424107142857142  8.470982142857144 12.013392857142858  Z M 9.857142857142856 21  L 21 21  L 21 6.571428571428571  L 16.42857142857143 6.571428571428571  L 16.42857142857143 11.910714285714285  C 16.42857142857143 12.25297619047619  16.308779761904763 12.543898809523807  16.06919642857143 12.783482142857142  C 15.829613095238097 13.023065476190478  15.538690476190478 13.142857142857142  15.196428571428571 13.142857142857142  L 9.857142857142856 13.142857142857142  L 9.857142857142856 21  Z " fill-rule="evenodd" />
    </mask>
  </defs>
  <g transform="matrix(1 0 0 1 -251 -72 )">
    <path d="M 16.42857142857143 4.928571428571429  L 21.767857142857142 4.928571428571429  C 22.110119047619047 4.928571428571429  22.401041666666668 5.048363095238094  22.640625 5.287946428571429  C 22.880208333333336 5.527529761904759  23 5.8184523809523805  23 6.1607142857142865  L 23 21.767857142857142  C 23 22.110119047619047  22.880208333333336 22.401041666666664  22.640625 22.640625  C 22.401041666666668 22.880208333333336  22.110119047619047 23  21.767857142857142 23  L 9.446428571428571 23  C 9.104166666666668 23  8.813244047619047 22.880208333333336  8.573660714285715 22.640625  C 8.334077380952381 22.401041666666664  8.214285714285715 22.110119047619047  8.214285714285715 21.767857142857142  L 8.214285714285715 18.07142857142857  L 1.232142857142857 18.07142857142857  C 0.8898809523809526 18.07142857142857  0.5989583333333334 17.951636904761905  0.359375 17.71205357142857  C 0.11979166666666666 17.472470238095237  0 17.18154761904762  0 16.839285714285715  L 0 8.214285714285714  C 0 7.872023809523809  0.08556547619047619 7.4955357142857135  0.2566964285714286 7.084821428571429  C 0.42782738095238093 6.674107142857142  0.6331845238095238 6.348958333333332  0.8727678571428571 6.109375  L 6.109375 0.8727678571428579  C 6.348958333333334 0.6331845238095228  6.674107142857143 0.4278273809523807  7.084821428571429 0.25669642857142894  C 7.495535714285714 0.08556547619047716  7.872023809523809 0  8.214285714285715 0  L 13.553571428571429 0  C 13.895833333333336 0  14.186755952380954 0.11979166666666752  14.426339285714286 0.359375  C 14.665922619047619 0.5989583333333325  14.785714285714286 0.8898809523809518  14.785714285714286 1.2321428571428579  L 14.785714285714286 5.4419642857142865  C 15.367559523809526 5.0997023809523805  15.915178571428571 4.928571428571429  16.42857142857143 4.928571428571429  Z M 14.785714285714286 11.5  L 14.785714285714286 7.662388392857142  L 10.948102678571429 11.5  L 14.785714285714286 11.5  Z M 6.571428571428571 6.571428571428571  L 6.571428571428571 2.733816964285713  L 2.733816964285714 6.571428571428571  L 6.571428571428571 6.571428571428571  Z M 8.470982142857144 12.013392857142858  C 8.642113095238095 11.602678571428571  8.847470238095239 11.277529761904761  9.087053571428571 11.037946428571429  L 13.142857142857142 6.982142857142858  L 13.142857142857142 1.6428571428571421  L 8.214285714285715 1.6428571428571421  L 8.214285714285715 6.982142857142858  C 8.214285714285715 7.324404761904759  8.094494047619047 7.6153273809523805  7.854910714285714 7.8549107142857135  C 7.615327380952382 8.094494047619046  7.324404761904763 8.214285714285714  6.982142857142857 8.214285714285714  L 1.6428571428571428 8.214285714285714  L 1.6428571428571428 16.42857142857143  L 8.214285714285715 16.42857142857143  L 8.214285714285715 13.142857142857142  C 8.214285714285715 12.800595238095239  8.299851190476192 12.424107142857142  8.470982142857144 12.013392857142858  Z M 9.857142857142856 21  L 21 21  L 21 6.571428571428571  L 16.42857142857143 6.571428571428571  L 16.42857142857143 11.910714285714285  C 16.42857142857143 12.25297619047619  16.308779761904763 12.543898809523807  16.06919642857143 12.783482142857142  C 15.829613095238097 13.023065476190478  15.538690476190478 13.142857142857142  15.196428571428571 13.142857142857142  L 9.857142857142856 13.142857142857142  L 9.857142857142856 21  Z " fill-rule="nonzero" fill="rgba(255, 255, 255, 1)" stroke="none" transform="matrix(1 0 0 1 251 72 )" class="fill" />
    <path d="M 16.42857142857143 4.928571428571429  L 21.767857142857142 4.928571428571429  C 22.110119047619047 4.928571428571429  22.401041666666668 5.048363095238094  22.640625 5.287946428571429  C 22.880208333333336 5.527529761904759  23 5.8184523809523805  23 6.1607142857142865  L 23 21.767857142857142  C 23 22.110119047619047  22.880208333333336 22.401041666666664  22.640625 22.640625  C 22.401041666666668 22.880208333333336  22.110119047619047 23  21.767857142857142 23  L 9.446428571428571 23  C 9.104166666666668 23  8.813244047619047 22.880208333333336  8.573660714285715 22.640625  C 8.334077380952381 22.401041666666664  8.214285714285715 22.110119047619047  8.214285714285715 21.767857142857142  L 8.214285714285715 18.07142857142857  L 1.232142857142857 18.07142857142857  C 0.8898809523809526 18.07142857142857  0.5989583333333334 17.951636904761905  0.359375 17.71205357142857  C 0.11979166666666666 17.472470238095237  0 17.18154761904762  0 16.839285714285715  L 0 8.214285714285714  C 0 7.872023809523809  0.08556547619047619 7.4955357142857135  0.2566964285714286 7.084821428571429  C 0.42782738095238093 6.674107142857142  0.6331845238095238 6.348958333333332  0.8727678571428571 6.109375  L 6.109375 0.8727678571428579  C 6.348958333333334 0.6331845238095228  6.674107142857143 0.4278273809523807  7.084821428571429 0.25669642857142894  C 7.495535714285714 0.08556547619047716  7.872023809523809 0  8.214285714285715 0  L 13.553571428571429 0  C 13.895833333333336 0  14.186755952380954 0.11979166666666752  14.426339285714286 0.359375  C 14.665922619047619 0.5989583333333325  14.785714285714286 0.8898809523809518  14.785714285714286 1.2321428571428579  L 14.785714285714286 5.4419642857142865  C 15.367559523809526 5.0997023809523805  15.915178571428571 4.928571428571429  16.42857142857143 4.928571428571429  Z " stroke-width="0" stroke-dasharray="0" stroke="rgba(255, 255, 255, 0)" fill="none" transform="matrix(1 0 0 1 251 72 )" class="stroke" mask="url(#Clip554)" />
    <path d="M 14.785714285714286 11.5  L 14.785714285714286 7.662388392857142  L 10.948102678571429 11.5  L 14.785714285714286 11.5  Z " stroke-width="0" stroke-dasharray="0" stroke="rgba(255, 255, 255, 0)" fill="none" transform="matrix(1 0 0 1 251 72 )" class="stroke" mask="url(#Clip554)" />
    <path d="M 6.571428571428571 6.571428571428571  L 6.571428571428571 2.733816964285713  L 2.733816964285714 6.571428571428571  L 6.571428571428571 6.571428571428571  Z " stroke-width="0" stroke-dasharray="0" stroke="rgba(255, 255, 255, 0)" fill="none" transform="matrix(1 0 0 1 251 72 )" class="stroke" mask="url(#Clip554)" />
    <path d="M 8.470982142857144 12.013392857142858  C 8.642113095238095 11.602678571428571  8.847470238095239 11.277529761904761  9.087053571428571 11.037946428571429  L 13.142857142857142 6.982142857142858  L 13.142857142857142 1.6428571428571421  L 8.214285714285715 1.6428571428571421  L 8.214285714285715 6.982142857142858  C 8.214285714285715 7.324404761904759  8.094494047619047 7.6153273809523805  7.854910714285714 7.8549107142857135  C 7.615327380952382 8.094494047619046  7.324404761904763 8.214285714285714  6.982142857142857 8.214285714285714  L 1.6428571428571428 8.214285714285714  L 1.6428571428571428 16.42857142857143  L 8.214285714285715 16.42857142857143  L 8.214285714285715 13.142857142857142  C 8.214285714285715 12.800595238095239  8.299851190476192 12.424107142857142  8.470982142857144 12.013392857142858  Z " stroke-width="0" stroke-dasharray="0" stroke="rgba(255, 255, 255, 0)" fill="none" transform="matrix(1 0 0 1 251 72 )" class="stroke" mask="url(#Clip554)" />
    <path d="M 9.857142857142856 21  L 21 21  L 21 6.571428571428571  L 16.42857142857143 6.571428571428571  L 16.42857142857143 11.910714285714285  C 16.42857142857143 12.25297619047619  16.308779761904763 12.543898809523807  16.06919642857143 12.783482142857142  C 15.829613095238097 13.023065476190478  15.538690476190478 13.142857142857142  15.196428571428571 13.142857142857142  L 9.857142857142856 13.142857142857142  L 9.857142857142856 21  Z " stroke-width="0" stroke-dasharray="0" stroke="rgba(255, 255, 255, 0)" fill="none" transform="matrix(1 0 0 1 251 72 )" class="stroke" mask="url(#Clip554)" />
  </g>
</svg>