<?xml version="1.0" encoding="utf-8"?>
<svg version="1.1" xmlns:xlink="http://www.w3.org/1999/xlink" width="19px" height="18px" xmlns="http://www.w3.org/2000/svg">
  <defs>
    <pattern id="BGPattern" patternUnits="userSpaceOnUse" alignment="0 0" imageRepeat="None" />
    <mask fill="white" id="Clip576">
      <path d="M 10.753619153674833 15.128004807692308  C 10.820619896065331 15.059495192307693  10.854120267260578 14.974759615384613  10.854120267260578 14.873798076923077  L 10.854120267260578 12.818509615384617  C 10.854120267260578 12.717548076923077  10.820619896065331 12.6328125  10.753619153674833 12.564302884615383  C 10.686618411284337 12.49579326923077  10.607275426874537 12.461538461538462  10.515590200445436 12.461538461538462  L 8.484409799554566 12.461538461538462  C 8.392724573125465 12.461538461538462  8.313381588715664 12.49579326923077  8.246380846325167 12.564302884615383  C 8.179380103934669 12.6328125  8.14587973273942 12.717548076923077  8.14587973273942 12.818509615384617  L 8.14587973273942 14.873798076923077  C 8.14587973273942 14.974759615384613  8.179380103934669 15.059495192307693  8.246380846325167 15.128004807692308  C 8.313381588715664 15.196514423076922  8.392724573125465 15.23076923076923  8.484409799554566 15.23076923076923  L 10.515590200445436 15.23076923076923  C 10.607275426874537 15.23076923076923  10.686618411284337 15.196514423076922  10.753619153674833 15.128004807692308  Z M 10.721881959910913 11.006610576923077  C 10.78888270230141 10.959735576923077  10.825909428359317 10.900240384615385  10.832962138084632 10.828125  L 11.023385300668151 5.862980769230769  C 11.023385300668151 5.776442307692308  10.988121752041573 5.707932692307691  10.917594654788418 5.6574519230769225  C 10.825909428359319 5.578124999999998  10.741276911655532 5.538461538461538  10.66369710467706 5.538461538461538  L 8.33630289532294 5.538461538461538  C 8.258723088344471 5.538461538461538  8.174090571640683 5.578124999999998  8.082405345211582 5.6574519230769225  C 8.011878247958427 5.707932692307691  7.976614699331848 5.783653846153843  7.976614699331848 5.884615384615383  L 8.156458797327394 10.828125  C 8.156458797327394 10.900240384615385  8.191722345953973 10.959735576923077  8.262249443207127 11.006610576923077  C 8.332776540460284 11.053485576923075  8.417409057164068 11.076923076923077  8.516146993318484 11.076923076923077  L 10.473273942093542 11.076923076923077  C 10.57201187824796 11.076923076923077  10.654881217520416 11.053485576923075  10.721881959910913 11.006610576923077  Z M 10.187639198218264 0.19471153846153877  C 10.39922048997773 0.3245192307692306  10.564959168522645 0.5012019230769218  10.684855233853007 0.7247596153846163  L 18.80957683741648 15.955528846153847  C 19.056421677802525 16.40985576923077  19.04936896807721 16.864182692307693  18.788418708240535 17.318509615384617  C 18.668522642910172 17.52764423076923  18.504547141796586 17.693509615384617  18.296492204899778 17.81610576923077  C 18.08843726800297 17.938701923076923  17.864513734224204 18  17.624721603563472 18  L 1.3752783964365256 18  C 1.135486265775798 18  0.9115627319970305 17.938701923076923  0.7035077951002228 17.81610576923077  C 0.495452858203415 17.693509615384617  0.3314773570898293 17.52764423076923  0.21158129175946547 17.318509615384617  C -0.04936896807720862 16.864182692307693  -0.05642167780252414 16.40985576923077  0.19042316258351893 15.955528846153847  L 8.315144766146993 0.7247596153846163  C 8.435040831477359 0.5012019230769218  8.600779510022273 0.3245192307692306  8.812360801781736 0.19471153846153877  C 9.023942093541203 0.06490384615384692  9.253155159613957 0  9.5 0  C 9.746844840386043 0  9.976057906458797 0.06490384615384692  10.187639198218264 0.19471153846153877  Z " fill-rule="evenodd" />
    </mask>
  </defs>
  <g transform="matrix(1 0 0 1 -594 -2312 )">
    <path d="M 10.753619153674833 15.128004807692308  C 10.820619896065331 15.059495192307693  10.854120267260578 14.974759615384613  10.854120267260578 14.873798076923077  L 10.854120267260578 12.818509615384617  C 10.854120267260578 12.717548076923077  10.820619896065331 12.6328125  10.753619153674833 12.564302884615383  C 10.686618411284337 12.49579326923077  10.607275426874537 12.461538461538462  10.515590200445436 12.461538461538462  L 8.484409799554566 12.461538461538462  C 8.392724573125465 12.461538461538462  8.313381588715664 12.49579326923077  8.246380846325167 12.564302884615383  C 8.179380103934669 12.6328125  8.14587973273942 12.717548076923077  8.14587973273942 12.818509615384617  L 8.14587973273942 14.873798076923077  C 8.14587973273942 14.974759615384613  8.179380103934669 15.059495192307693  8.246380846325167 15.128004807692308  C 8.313381588715664 15.196514423076922  8.392724573125465 15.23076923076923  8.484409799554566 15.23076923076923  L 10.515590200445436 15.23076923076923  C 10.607275426874537 15.23076923076923  10.686618411284337 15.196514423076922  10.753619153674833 15.128004807692308  Z M 10.721881959910913 11.006610576923077  C 10.78888270230141 10.959735576923077  10.825909428359317 10.900240384615385  10.832962138084632 10.828125  L 11.023385300668151 5.862980769230769  C 11.023385300668151 5.776442307692308  10.988121752041573 5.707932692307691  10.917594654788418 5.6574519230769225  C 10.825909428359319 5.578124999999998  10.741276911655532 5.538461538461538  10.66369710467706 5.538461538461538  L 8.33630289532294 5.538461538461538  C 8.258723088344471 5.538461538461538  8.174090571640683 5.578124999999998  8.082405345211582 5.6574519230769225  C 8.011878247958427 5.707932692307691  7.976614699331848 5.783653846153843  7.976614699331848 5.884615384615383  L 8.156458797327394 10.828125  C 8.156458797327394 10.900240384615385  8.191722345953973 10.959735576923077  8.262249443207127 11.006610576923077  C 8.332776540460284 11.053485576923075  8.417409057164068 11.076923076923077  8.516146993318484 11.076923076923077  L 10.473273942093542 11.076923076923077  C 10.57201187824796 11.076923076923077  10.654881217520416 11.053485576923075  10.721881959910913 11.006610576923077  Z M 10.187639198218264 0.19471153846153877  C 10.39922048997773 0.3245192307692306  10.564959168522645 0.5012019230769218  10.684855233853007 0.7247596153846163  L 18.80957683741648 15.955528846153847  C 19.056421677802525 16.40985576923077  19.04936896807721 16.864182692307693  18.788418708240535 17.318509615384617  C 18.668522642910172 17.52764423076923  18.504547141796586 17.693509615384617  18.296492204899778 17.81610576923077  C 18.08843726800297 17.938701923076923  17.864513734224204 18  17.624721603563472 18  L 1.3752783964365256 18  C 1.135486265775798 18  0.9115627319970305 17.938701923076923  0.7035077951002228 17.81610576923077  C 0.495452858203415 17.693509615384617  0.3314773570898293 17.52764423076923  0.21158129175946547 17.318509615384617  C -0.04936896807720862 16.864182692307693  -0.05642167780252414 16.40985576923077  0.19042316258351893 15.955528846153847  L 8.315144766146993 0.7247596153846163  C 8.435040831477359 0.5012019230769218  8.600779510022273 0.3245192307692306  8.812360801781736 0.19471153846153877  C 9.023942093541203 0.06490384615384692  9.253155159613957 0  9.5 0  C 9.746844840386043 0  9.976057906458797 0.06490384615384692  10.187639198218264 0.19471153846153877  Z " fill-rule="nonzero" fill="rgba(254, 203, 0, 1)" stroke="none" transform="matrix(1 0 0 1 594 2312 )" class="fill" />
    <path d="M 10.753619153674833 15.128004807692308  C 10.820619896065331 15.059495192307693  10.854120267260578 14.974759615384613  10.854120267260578 14.873798076923077  L 10.854120267260578 12.818509615384617  C 10.854120267260578 12.717548076923077  10.820619896065331 12.6328125  10.753619153674833 12.564302884615383  C 10.686618411284337 12.49579326923077  10.607275426874537 12.461538461538462  10.515590200445436 12.461538461538462  L 8.484409799554566 12.461538461538462  C 8.392724573125465 12.461538461538462  8.313381588715664 12.49579326923077  8.246380846325167 12.564302884615383  C 8.179380103934669 12.6328125  8.14587973273942 12.717548076923077  8.14587973273942 12.818509615384617  L 8.14587973273942 14.873798076923077  C 8.14587973273942 14.974759615384613  8.179380103934669 15.059495192307693  8.246380846325167 15.128004807692308  C 8.313381588715664 15.196514423076922  8.392724573125465 15.23076923076923  8.484409799554566 15.23076923076923  L 10.515590200445436 15.23076923076923  C 10.607275426874537 15.23076923076923  10.686618411284337 15.196514423076922  10.753619153674833 15.128004807692308  Z " stroke-width="0" stroke-dasharray="0" stroke="rgba(255, 255, 255, 0)" fill="none" transform="matrix(1 0 0 1 594 2312 )" class="stroke" mask="url(#Clip576)" />
    <path d="M 10.721881959910913 11.006610576923077  C 10.78888270230141 10.959735576923077  10.825909428359317 10.900240384615385  10.832962138084632 10.828125  L 11.023385300668151 5.862980769230769  C 11.023385300668151 5.776442307692308  10.988121752041573 5.707932692307691  10.917594654788418 5.6574519230769225  C 10.825909428359319 5.578124999999998  10.741276911655532 5.538461538461538  10.66369710467706 5.538461538461538  L 8.33630289532294 5.538461538461538  C 8.258723088344471 5.538461538461538  8.174090571640683 5.578124999999998  8.082405345211582 5.6574519230769225  C 8.011878247958427 5.707932692307691  7.976614699331848 5.783653846153843  7.976614699331848 5.884615384615383  L 8.156458797327394 10.828125  C 8.156458797327394 10.900240384615385  8.191722345953973 10.959735576923077  8.262249443207127 11.006610576923077  C 8.332776540460284 11.053485576923075  8.417409057164068 11.076923076923077  8.516146993318484 11.076923076923077  L 10.473273942093542 11.076923076923077  C 10.57201187824796 11.076923076923077  10.654881217520416 11.053485576923075  10.721881959910913 11.006610576923077  Z " stroke-width="0" stroke-dasharray="0" stroke="rgba(255, 255, 255, 0)" fill="none" transform="matrix(1 0 0 1 594 2312 )" class="stroke" mask="url(#Clip576)" />
    <path d="M 10.187639198218264 0.19471153846153877  C 10.39922048997773 0.3245192307692306  10.564959168522645 0.5012019230769218  10.684855233853007 0.7247596153846163  L 18.80957683741648 15.955528846153847  C 19.056421677802525 16.40985576923077  19.04936896807721 16.864182692307693  18.788418708240535 17.318509615384617  C 18.668522642910172 17.52764423076923  18.504547141796586 17.693509615384617  18.296492204899778 17.81610576923077  C 18.08843726800297 17.938701923076923  17.864513734224204 18  17.624721603563472 18  L 1.3752783964365256 18  C 1.135486265775798 18  0.9115627319970305 17.938701923076923  0.7035077951002228 17.81610576923077  C 0.495452858203415 17.693509615384617  0.3314773570898293 17.52764423076923  0.21158129175946547 17.318509615384617  C -0.04936896807720862 16.864182692307693  -0.05642167780252414 16.40985576923077  0.19042316258351893 15.955528846153847  L 8.315144766146993 0.7247596153846163  C 8.435040831477359 0.5012019230769218  8.600779510022273 0.3245192307692306  8.812360801781736 0.19471153846153877  C 9.023942093541203 0.06490384615384692  9.253155159613957 0  9.5 0  C 9.746844840386043 0  9.976057906458797 0.06490384615384692  10.187639198218264 0.19471153846153877  Z " stroke-width="0" stroke-dasharray="0" stroke="rgba(255, 255, 255, 0)" fill="none" transform="matrix(1 0 0 1 594 2312 )" class="stroke" mask="url(#Clip576)" />
  </g>
</svg>