<?xml version="1.0" encoding="utf-8"?>
<svg version="1.1" xmlns:xlink="http://www.w3.org/1999/xlink" width="21px" height="18px" xmlns="http://www.w3.org/2000/svg">
  <defs>
    <pattern id="BGPattern" patternUnits="userSpaceOnUse" alignment="0 0" imageRepeat="None" />
    <mask fill="white" id="Clip577">
      <path d="M 12.44140625 16.104910714285715  C 12.60546875 15.984375  12.6875 15.812500000000002  12.6875 15.589285714285715  L 12.6875 14.839285714285714  L 12.6875 8.571428571428571  L 12.6875 6.000000000000001  L 8.3125 6.000000000000001  L 8.3125 8.571428571428571  L 8.3125 14.839285714285714  L 8.3125 15.589285714285715  C 8.3125 15.812500000000002  8.39453125 15.984375  8.55859375 16.104910714285715  C 8.72265625 16.225446428571427  8.932291666666668 16.285714285714285  9.1875 16.285714285714285  L 11.8125 16.285714285714285  C 12.067708333333334 16.285714285714285  12.27734375 16.225446428571427  12.44140625 16.104910714285715  Z M 5.5234375 3.9107142857142856  C 5.778645833333334 4.160714285714283  6.088541666666667 4.2857142857142865  6.453125 4.2857142857142865  L 9.119140625 4.2857142857142865  L 7.396484375 2.129464285714285  C 7.159505208333334 1.8526785714285698  6.845052083333333 1.7142857142857142  6.453125 1.7142857142857142  C 6.088541666666667 1.7142857142857142  5.778645833333334 1.8392857142857137  5.5234375 2.089285714285715  C 5.268229166666667 2.3392857142857117  5.140625 2.6428571428571415  5.140625 2.999999999999999  C 5.140625 3.357142857142855  5.268229166666667 3.6607142857142847  5.5234375 3.9107142857142856  Z M 15.4765625 3.9107142857142856  C 15.731770833333336 3.6607142857142847  15.859375 3.357142857142855  15.859375 2.999999999999999  C 15.859375 2.6428571428571415  15.731770833333336 2.3392857142857117  15.4765625 2.089285714285715  C 15.221354166666668 1.8392857142857137  14.911458333333336 1.7142857142857142  14.546875 1.7142857142857142  C 14.154947916666668 1.7142857142857142  13.840494791666668 1.8526785714285698  13.603515625 2.129464285714285  L 11.89453125 4.2857142857142865  L 14.546875 4.2857142857142865  C 14.911458333333336 4.2857142857142865  15.221354166666668 4.160714285714283  15.4765625 3.9107142857142856  Z M 20.876953125 6.1205357142857135  C 20.958984375 6.200892857142858  21 6.303571428571428  21 6.428571428571428  L 21 10.714285714285714  C 21 10.839285714285714  20.958984375 10.941964285714286  20.876953125 11.022321428571429  C 20.794921875 11.102678571428571  20.690104166666668 11.142857142857142  20.5625 11.142857142857142  L 19.25 11.142857142857142  L 19.25 16.714285714285715  C 19.25 17.071428571428573  19.122395833333332 17.375  18.8671875 17.625  C 18.611979166666668 17.875  18.302083333333332 18  17.9375 18  L 3.0625 18  C 2.697916666666667 18  2.3880208333333335 17.875  2.1328125 17.625  C 1.8776041666666667 17.375  1.75 17.071428571428573  1.75 16.714285714285715  L 1.75 11.142857142857142  L 0.4375 11.142857142857142  C 0.30989583333333337 11.142857142857142  0.20507812500000003 11.102678571428571  0.123046875 11.022321428571429  C 0.041015625 10.941964285714286  0 10.839285714285714  0 10.714285714285714  L 0 6.428571428571428  C 0 6.303571428571428  0.041015625 6.200892857142858  0.123046875 6.1205357142857135  C 0.20507812500000003 6.040178571428571  0.30989583333333337 6.000000000000001  0.4375 6.000000000000001  L 6.453125 6.000000000000001  C 5.60546875 6.000000000000001  4.883138020833333 5.707589285714285  4.2861328125 5.122767857142858  C 3.689127604166667 4.537946428571428  3.390625 3.8303571428571432  3.390625 2.999999999999999  C 3.390625 2.1696428571428577  3.689127604166667 1.4620535714285687  4.2861328125 0.8772321428571432  C 4.883138020833333 0.29241071428571375  5.60546875 0  6.453125 0  C 7.428385416666667 0  8.194010416666668 0.3437499999999978  8.75 1.0312499999999993  L 10.5 3.241071428571429  L 12.25 1.0312499999999993  C 12.805989583333334 0.3437499999999978  13.571614583333334 0  14.546875 0  C 15.39453125 0  16.116861979166668 0.29241071428571375  16.7138671875 0.8772321428571432  C 17.310872395833336 1.4620535714285687  17.609375 2.1696428571428577  17.609375 2.999999999999999  C 17.609375 3.8303571428571432  17.310872395833336 4.537946428571428  16.7138671875 5.122767857142858  C 16.116861979166668 5.707589285714285  15.39453125 6.000000000000001  14.546875 6.000000000000001  L 20.5625 6.000000000000001  C 20.690104166666668 6.000000000000001  20.794921875 6.040178571428571  20.876953125 6.1205357142857135  Z " fill-rule="evenodd" />
    </mask>
  </defs>
  <g transform="matrix(1 0 0 1 -118 -3022 )">
    <path d="M 12.44140625 16.104910714285715  C 12.60546875 15.984375  12.6875 15.812500000000002  12.6875 15.589285714285715  L 12.6875 14.839285714285714  L 12.6875 8.571428571428571  L 12.6875 6.000000000000001  L 8.3125 6.000000000000001  L 8.3125 8.571428571428571  L 8.3125 14.839285714285714  L 8.3125 15.589285714285715  C 8.3125 15.812500000000002  8.39453125 15.984375  8.55859375 16.104910714285715  C 8.72265625 16.225446428571427  8.932291666666668 16.285714285714285  9.1875 16.285714285714285  L 11.8125 16.285714285714285  C 12.067708333333334 16.285714285714285  12.27734375 16.225446428571427  12.44140625 16.104910714285715  Z M 5.5234375 3.9107142857142856  C 5.778645833333334 4.160714285714283  6.088541666666667 4.2857142857142865  6.453125 4.2857142857142865  L 9.119140625 4.2857142857142865  L 7.396484375 2.129464285714285  C 7.159505208333334 1.8526785714285698  6.845052083333333 1.7142857142857142  6.453125 1.7142857142857142  C 6.088541666666667 1.7142857142857142  5.778645833333334 1.8392857142857137  5.5234375 2.089285714285715  C 5.268229166666667 2.3392857142857117  5.140625 2.6428571428571415  5.140625 2.999999999999999  C 5.140625 3.357142857142855  5.268229166666667 3.6607142857142847  5.5234375 3.9107142857142856  Z M 15.4765625 3.9107142857142856  C 15.731770833333336 3.6607142857142847  15.859375 3.357142857142855  15.859375 2.999999999999999  C 15.859375 2.6428571428571415  15.731770833333336 2.3392857142857117  15.4765625 2.089285714285715  C 15.221354166666668 1.8392857142857137  14.911458333333336 1.7142857142857142  14.546875 1.7142857142857142  C 14.154947916666668 1.7142857142857142  13.840494791666668 1.8526785714285698  13.603515625 2.129464285714285  L 11.89453125 4.2857142857142865  L 14.546875 4.2857142857142865  C 14.911458333333336 4.2857142857142865  15.221354166666668 4.160714285714283  15.4765625 3.9107142857142856  Z M 20.876953125 6.1205357142857135  C 20.958984375 6.200892857142858  21 6.303571428571428  21 6.428571428571428  L 21 10.714285714285714  C 21 10.839285714285714  20.958984375 10.941964285714286  20.876953125 11.022321428571429  C 20.794921875 11.102678571428571  20.690104166666668 11.142857142857142  20.5625 11.142857142857142  L 19.25 11.142857142857142  L 19.25 16.714285714285715  C 19.25 17.071428571428573  19.122395833333332 17.375  18.8671875 17.625  C 18.611979166666668 17.875  18.302083333333332 18  17.9375 18  L 3.0625 18  C 2.697916666666667 18  2.3880208333333335 17.875  2.1328125 17.625  C 1.8776041666666667 17.375  1.75 17.071428571428573  1.75 16.714285714285715  L 1.75 11.142857142857142  L 0.4375 11.142857142857142  C 0.30989583333333337 11.142857142857142  0.20507812500000003 11.102678571428571  0.123046875 11.022321428571429  C 0.041015625 10.941964285714286  0 10.839285714285714  0 10.714285714285714  L 0 6.428571428571428  C 0 6.303571428571428  0.041015625 6.200892857142858  0.123046875 6.1205357142857135  C 0.20507812500000003 6.040178571428571  0.30989583333333337 6.000000000000001  0.4375 6.000000000000001  L 6.453125 6.000000000000001  C 5.60546875 6.000000000000001  4.883138020833333 5.707589285714285  4.2861328125 5.122767857142858  C 3.689127604166667 4.537946428571428  3.390625 3.8303571428571432  3.390625 2.999999999999999  C 3.390625 2.1696428571428577  3.689127604166667 1.4620535714285687  4.2861328125 0.8772321428571432  C 4.883138020833333 0.29241071428571375  5.60546875 0  6.453125 0  C 7.428385416666667 0  8.194010416666668 0.3437499999999978  8.75 1.0312499999999993  L 10.5 3.241071428571429  L 12.25 1.0312499999999993  C 12.805989583333334 0.3437499999999978  13.571614583333334 0  14.546875 0  C 15.39453125 0  16.116861979166668 0.29241071428571375  16.7138671875 0.8772321428571432  C 17.310872395833336 1.4620535714285687  17.609375 2.1696428571428577  17.609375 2.999999999999999  C 17.609375 3.8303571428571432  17.310872395833336 4.537946428571428  16.7138671875 5.122767857142858  C 16.116861979166668 5.707589285714285  15.39453125 6.000000000000001  14.546875 6.000000000000001  L 20.5625 6.000000000000001  C 20.690104166666668 6.000000000000001  20.794921875 6.040178571428571  20.876953125 6.1205357142857135  Z " fill-rule="nonzero" fill="rgba(217, 0, 27, 1)" stroke="none" transform="matrix(1 0 0 1 118 3022 )" class="fill" />
    <path d="M 12.44140625 16.104910714285715  C 12.60546875 15.984375  12.6875 15.812500000000002  12.6875 15.589285714285715  L 12.6875 14.839285714285714  L 12.6875 8.571428571428571  L 12.6875 6.000000000000001  L 8.3125 6.000000000000001  L 8.3125 8.571428571428571  L 8.3125 14.839285714285714  L 8.3125 15.589285714285715  C 8.3125 15.812500000000002  8.39453125 15.984375  8.55859375 16.104910714285715  C 8.72265625 16.225446428571427  8.932291666666668 16.285714285714285  9.1875 16.285714285714285  L 11.8125 16.285714285714285  C 12.067708333333334 16.285714285714285  12.27734375 16.225446428571427  12.44140625 16.104910714285715  Z " stroke-width="0" stroke-dasharray="0" stroke="rgba(255, 255, 255, 0)" fill="none" transform="matrix(1 0 0 1 118 3022 )" class="stroke" mask="url(#Clip577)" />
    <path d="M 5.5234375 3.9107142857142856  C 5.778645833333334 4.160714285714283  6.088541666666667 4.2857142857142865  6.453125 4.2857142857142865  L 9.119140625 4.2857142857142865  L 7.396484375 2.129464285714285  C 7.159505208333334 1.8526785714285698  6.845052083333333 1.7142857142857142  6.453125 1.7142857142857142  C 6.088541666666667 1.7142857142857142  5.778645833333334 1.8392857142857137  5.5234375 2.089285714285715  C 5.268229166666667 2.3392857142857117  5.140625 2.6428571428571415  5.140625 2.999999999999999  C 5.140625 3.357142857142855  5.268229166666667 3.6607142857142847  5.5234375 3.9107142857142856  Z " stroke-width="0" stroke-dasharray="0" stroke="rgba(255, 255, 255, 0)" fill="none" transform="matrix(1 0 0 1 118 3022 )" class="stroke" mask="url(#Clip577)" />
    <path d="M 15.4765625 3.9107142857142856  C 15.731770833333336 3.6607142857142847  15.859375 3.357142857142855  15.859375 2.999999999999999  C 15.859375 2.6428571428571415  15.731770833333336 2.3392857142857117  15.4765625 2.089285714285715  C 15.221354166666668 1.8392857142857137  14.911458333333336 1.7142857142857142  14.546875 1.7142857142857142  C 14.154947916666668 1.7142857142857142  13.840494791666668 1.8526785714285698  13.603515625 2.129464285714285  L 11.89453125 4.2857142857142865  L 14.546875 4.2857142857142865  C 14.911458333333336 4.2857142857142865  15.221354166666668 4.160714285714283  15.4765625 3.9107142857142856  Z " stroke-width="0" stroke-dasharray="0" stroke="rgba(255, 255, 255, 0)" fill="none" transform="matrix(1 0 0 1 118 3022 )" class="stroke" mask="url(#Clip577)" />
    <path d="M 20.876953125 6.1205357142857135  C 20.958984375 6.200892857142858  21 6.303571428571428  21 6.428571428571428  L 21 10.714285714285714  C 21 10.839285714285714  20.958984375 10.941964285714286  20.876953125 11.022321428571429  C 20.794921875 11.102678571428571  20.690104166666668 11.142857142857142  20.5625 11.142857142857142  L 19.25 11.142857142857142  L 19.25 16.714285714285715  C 19.25 17.071428571428573  19.122395833333332 17.375  18.8671875 17.625  C 18.611979166666668 17.875  18.302083333333332 18  17.9375 18  L 3.0625 18  C 2.697916666666667 18  2.3880208333333335 17.875  2.1328125 17.625  C 1.8776041666666667 17.375  1.75 17.071428571428573  1.75 16.714285714285715  L 1.75 11.142857142857142  L 0.4375 11.142857142857142  C 0.30989583333333337 11.142857142857142  0.20507812500000003 11.102678571428571  0.123046875 11.022321428571429  C 0.041015625 10.941964285714286  0 10.839285714285714  0 10.714285714285714  L 0 6.428571428571428  C 0 6.303571428571428  0.041015625 6.200892857142858  0.123046875 6.1205357142857135  C 0.20507812500000003 6.040178571428571  0.30989583333333337 6.000000000000001  0.4375 6.000000000000001  L 6.453125 6.000000000000001  C 5.60546875 6.000000000000001  4.883138020833333 5.707589285714285  4.2861328125 5.122767857142858  C 3.689127604166667 4.537946428571428  3.390625 3.8303571428571432  3.390625 2.999999999999999  C 3.390625 2.1696428571428577  3.689127604166667 1.4620535714285687  4.2861328125 0.8772321428571432  C 4.883138020833333 0.29241071428571375  5.60546875 0  6.453125 0  C 7.428385416666667 0  8.194010416666668 0.3437499999999978  8.75 1.0312499999999993  L 10.5 3.241071428571429  L 12.25 1.0312499999999993  C 12.805989583333334 0.3437499999999978  13.571614583333334 0  14.546875 0  C 15.39453125 0  16.116861979166668 0.29241071428571375  16.7138671875 0.8772321428571432  C 17.310872395833336 1.4620535714285687  17.609375 2.1696428571428577  17.609375 2.999999999999999  C 17.609375 3.8303571428571432  17.310872395833336 4.537946428571428  16.7138671875 5.122767857142858  C 16.116861979166668 5.707589285714285  15.39453125 6.000000000000001  14.546875 6.000000000000001  L 20.5625 6.000000000000001  C 20.690104166666668 6.000000000000001  20.794921875 6.040178571428571  20.876953125 6.1205357142857135  Z " stroke-width="0" stroke-dasharray="0" stroke="rgba(255, 255, 255, 0)" fill="none" transform="matrix(1 0 0 1 118 3022 )" class="stroke" mask="url(#Clip577)" />
  </g>
</svg>