<?xml version="1.0" encoding="utf-8"?>
<svg version="1.1" xmlns:xlink="http://www.w3.org/1999/xlink" width="11px" height="6px" xmlns="http://www.w3.org/2000/svg">
  <defs>
    <pattern id="BGPattern" patternUnits="userSpaceOnUse" alignment="0 0" imageRepeat="None" />
    <mask fill="white" id="Clip59">
      <path d="M 10.7958984375 0.19791666666666696  C 10.931966145833334 0.3298611111111105  11 0.4861111111111096  11 0.666666666666667  C 11 0.8472222222222217  10.931966145833334 1.0034722222222214  10.7958984375 1.135416666666667  L 5.9833984375 5.802083333333333  C 5.847330729166667 5.934027777777779  5.686197916666667 6  5.5 6  C 5.313802083333334 6  5.152669270833334 5.934027777777779  5.0166015625 5.802083333333333  L 0.2041015625 1.135416666666667  C 0.06803385416666666 1.0034722222222214  0 0.8472222222222217  0 0.666666666666667  C 0 0.4861111111111096  0.06803385416666666 0.3298611111111105  0.2041015625 0.19791666666666696  C 0.34016927083333337 0.06597222222222143  0.5013020833333334 0  0.6875 0  L 10.3125 0  C 10.498697916666668 0  10.659830729166668 0.06597222222222143  10.7958984375 0.19791666666666696  Z " fill-rule="evenodd" />
    </mask>
  </defs>
  <g transform="matrix(1 0 0 1 -89 -9 )">
    <path d="M 10.7958984375 0.19791666666666696  C 10.931966145833334 0.3298611111111105  11 0.4861111111111096  11 0.666666666666667  C 11 0.8472222222222217  10.931966145833334 1.0034722222222214  10.7958984375 1.135416666666667  L 5.9833984375 5.802083333333333  C 5.847330729166667 5.934027777777779  5.686197916666667 6  5.5 6  C 5.313802083333334 6  5.152669270833334 5.934027777777779  5.0166015625 5.802083333333333  L 0.2041015625 1.135416666666667  C 0.06803385416666666 1.0034722222222214  0 0.8472222222222217  0 0.666666666666667  C 0 0.4861111111111096  0.06803385416666666 0.3298611111111105  0.2041015625 0.19791666666666696  C 0.34016927083333337 0.06597222222222143  0.5013020833333334 0  0.6875 0  L 10.3125 0  C 10.498697916666668 0  10.659830729166668 0.06597222222222143  10.7958984375 0.19791666666666696  Z " fill-rule="nonzero" fill="rgba(255, 255, 255, 1)" stroke="none" transform="matrix(1 0 0 1 89 9 )" class="fill" />
    <path d="M 10.7958984375 0.19791666666666696  C 10.931966145833334 0.3298611111111105  11 0.4861111111111096  11 0.666666666666667  C 11 0.8472222222222217  10.931966145833334 1.0034722222222214  10.7958984375 1.135416666666667  L 5.9833984375 5.802083333333333  C 5.847330729166667 5.934027777777779  5.686197916666667 6  5.5 6  C 5.313802083333334 6  5.152669270833334 5.934027777777779  5.0166015625 5.802083333333333  L 0.2041015625 1.135416666666667  C 0.06803385416666666 1.0034722222222214  0 0.8472222222222217  0 0.666666666666667  C 0 0.4861111111111096  0.06803385416666666 0.3298611111111105  0.2041015625 0.19791666666666696  C 0.34016927083333337 0.06597222222222143  0.5013020833333334 0  0.6875 0  L 10.3125 0  C 10.498697916666668 0  10.659830729166668 0.06597222222222143  10.7958984375 0.19791666666666696  Z " stroke-width="0" stroke-dasharray="0" stroke="rgba(255, 255, 255, 0)" fill="none" transform="matrix(1 0 0 1 89 9 )" class="stroke" mask="url(#Clip59)" />
  </g>
</svg>