<?xml version="1.0" encoding="utf-8"?>
<svg version="1.1" xmlns:xlink="http://www.w3.org/1999/xlink" width="30px" height="25px" xmlns="http://www.w3.org/2000/svg">
  <defs>
    <pattern id="BGPattern" patternUnits="userSpaceOnUse" alignment="0 0" imageRepeat="None" />
    <mask fill="white" id="Clip123">
      <path d="M 28.792067307692307 8.291903409090908  C 29.59735576923077 9.949100378787879  30 11.671401515151514  30 13.458806818181818  C 30 15.42376893939394  29.639423076923077 17.282196969696965  28.91826923076923 19.03409090909091  L 28.557692307692307 19.904119318181817  L 25.22235576923077 20.490056818181817  C 24.957932692307697 21.47253787878788  24.4140625 22.28042140151515  23.590745192307693 22.913707386363637  C 22.767427884615387 23.54699337121212  21.82692307692308 23.863636363636363  20.76923076923077 23.863636363636363  L 20.76923076923077 24.431818181818183  C 20.76923076923077 24.59753787878788  20.71514423076923 24.733664772727273  20.606971153846153 24.840198863636363  C 20.498798076923077 24.946732954545457  20.360576923076927 25  20.192307692307693 25  L 19.038461538461537 25  C 18.87019230769231 25  18.731971153846153 24.946732954545457  18.623798076923077 24.840198863636363  C 18.515625 24.733664772727273  18.461538461538463 24.59753787878788  18 24.431818181818183  L 18 14.204545454545453  C 18.461538461538463 14.038825757575758  18.515625 13.902698863636365  18.623798076923077 13.79616477272727  C 18.731971153846153 13.689630681818182  18.87019230769231 13.636363636363635  19.038461538461537 13.636363636363635  L 20.192307692307693 13.636363636363635  C 20.360576923076927 13.636363636363635  20.498798076923077 13.689630681818182  20.606971153846153 13.79616477272727  C 20.71514423076923 13.902698863636365  20.76923076923077 14.038825757575758  20.76923076923077 14.204545454545453  L 20.76923076923077 14.77272727272727  C 21.622596153846157 14.77272727272727  22.403846153846153 14.982836174242422  23.11298076923077 15.40305397727273  C 23.822115384615387 15.823271780303028  24.381009615384617 16.388494318181817  24.789663461538463 17.09872159090909  L 26.015625 16.88565340909091  C 26.364182692307697 15.761126893939393  26.538461538461537 14.618844696969695  26.538461538461537 13.458806818181818  C 26.538461538461537 11.706912878787879  26.009615384615387 10.055634469696969  24.951923076923077 8.504971590909092  C 23.89423076923077 6.954308712121213  22.47295673076923 5.717329545454544  20.688100961538463 4.794034090909091  C 18.903245192307693 3.8707386363636354  17.00721153846154 3.4090909090909087  15 3.4090909090909087  C 12.992788461538463 3.4090909090909087  11.096754807692308 3.8707386363636354  9.311899038461538 4.794034090909091  C 7.527043269230768 5.717329545454544  6.105769230769231 6.954308712121213  5.048076923076923 8.504971590909092  C 3.9903846153846154 10.055634469696969  3.4615384615384617 11.706912878787879  3.4615384615384617 13.458806818181818  C 3.4615384615384617 14.618844696969695  3.6358173076923075 15.761126893939393  3.984375 16.88565340909091  L 5.210336538461538 17.09872159090909  C 5.618990384615385 16.388494318181817  6.177884615384616 15.823271780303028  6.887019230769231 15.40305397727273  C 7.596153846153848 14.982836174242422  8.377403846153848 14.77272727272727  9.230769230769232 14.77272727272727  L 9.230769230769232 14.204545454545453  C 9.230769230769232 14.038825757575758  9.284855769230768 13.902698863636365  9.393028846153847 13.79616477272727  C 9.501201923076923 13.689630681818182  9.639423076923078 13.636363636363635  9.807692307692308 13.636363636363635  L 10.961538461538462 13.636363636363635  C 11.129807692307693 13.636363636363635  11.268028846153847 13.689630681818182  11.376201923076923 13.79616477272727  C 11.484375 13.902698863636365  11.538461538461538 14.038825757575758  12 14.204545454545453  L 12 24.431818181818183  C 11.538461538461538 24.59753787878788  11.484375 24.733664772727273  11.376201923076923 24.840198863636363  C 11.268028846153847 24.946732954545457  11.129807692307693 25  10.961538461538462 25  L 9.807692307692308 25  C 9.639423076923078 25  9.501201923076923 24.946732954545457  9.393028846153847 24.840198863636363  C 9.284855769230768 24.733664772727273  9.230769230769232 24.59753787878788  9.230769230769232 24.431818181818183  L 9.230769230769232 23.863636363636363  C 8.173076923076923 23.863636363636363  7.232572115384616 23.54699337121212  6.4092548076923075 22.913707386363637  C 5.585937500000001 22.28042140151515  5.042067307692308 21.47253787878788  4.777644230769231 20.490056818181817  L 1.4423076923076923 19.904119318181817  L 1.0817307692307692 19.03409090909091  C 0.3605769230769231 17.282196969696965  0 15.42376893939394  0 13.458806818181818  C 0 11.671401515151514  0.4026442307692307 9.949100378787879  1.2079326923076923 8.291903409090908  C 2.0132211538461537 6.634706439393937  3.088942307692308 5.19945549242424  4.435096153846154 3.9861505681818175  C 5.78125 2.7728456439393923  7.3798076923076925 1.8051609848484835  9.230769230769232 1.0830965909090913  C 11.08173076923077 0.36103219696969613  13.004807692307693 0  15 0  C 16.99519230769231 0  18.918269230769234 0.36103219696969613  20.76923076923077 1.0830965909090913  C 22.62019230769231 1.8051609848484835  24.218750000000004 2.7728456439393923  25.564903846153847 3.9861505681818175  C 26.911057692307693 5.19945549242424  27.98677884615385 6.634706439393937  28.792067307692307 8.291903409090908  Z " fill-rule="evenodd" />
    </mask>
  </defs>
  <g transform="matrix(1 0 0 1 -432 -953 )">
    <path d="M 28.792067307692307 8.291903409090908  C 29.59735576923077 9.949100378787879  30 11.671401515151514  30 13.458806818181818  C 30 15.42376893939394  29.639423076923077 17.282196969696965  28.91826923076923 19.03409090909091  L 28.557692307692307 19.904119318181817  L 25.22235576923077 20.490056818181817  C 24.957932692307697 21.47253787878788  24.4140625 22.28042140151515  23.590745192307693 22.913707386363637  C 22.767427884615387 23.54699337121212  21.82692307692308 23.863636363636363  20.76923076923077 23.863636363636363  L 20.76923076923077 24.431818181818183  C 20.76923076923077 24.59753787878788  20.71514423076923 24.733664772727273  20.606971153846153 24.840198863636363  C 20.498798076923077 24.946732954545457  20.360576923076927 25  20.192307692307693 25  L 19.038461538461537 25  C 18.87019230769231 25  18.731971153846153 24.946732954545457  18.623798076923077 24.840198863636363  C 18.515625 24.733664772727273  18.461538461538463 24.59753787878788  18 24.431818181818183  L 18 14.204545454545453  C 18.461538461538463 14.038825757575758  18.515625 13.902698863636365  18.623798076923077 13.79616477272727  C 18.731971153846153 13.689630681818182  18.87019230769231 13.636363636363635  19.038461538461537 13.636363636363635  L 20.192307692307693 13.636363636363635  C 20.360576923076927 13.636363636363635  20.498798076923077 13.689630681818182  20.606971153846153 13.79616477272727  C 20.71514423076923 13.902698863636365  20.76923076923077 14.038825757575758  20.76923076923077 14.204545454545453  L 20.76923076923077 14.77272727272727  C 21.622596153846157 14.77272727272727  22.403846153846153 14.982836174242422  23.11298076923077 15.40305397727273  C 23.822115384615387 15.823271780303028  24.381009615384617 16.388494318181817  24.789663461538463 17.09872159090909  L 26.015625 16.88565340909091  C 26.364182692307697 15.761126893939393  26.538461538461537 14.618844696969695  26.538461538461537 13.458806818181818  C 26.538461538461537 11.706912878787879  26.009615384615387 10.055634469696969  24.951923076923077 8.504971590909092  C 23.89423076923077 6.954308712121213  22.47295673076923 5.717329545454544  20.688100961538463 4.794034090909091  C 18.903245192307693 3.8707386363636354  17.00721153846154 3.4090909090909087  15 3.4090909090909087  C 12.992788461538463 3.4090909090909087  11.096754807692308 3.8707386363636354  9.311899038461538 4.794034090909091  C 7.527043269230768 5.717329545454544  6.105769230769231 6.954308712121213  5.048076923076923 8.504971590909092  C 3.9903846153846154 10.055634469696969  3.4615384615384617 11.706912878787879  3.4615384615384617 13.458806818181818  C 3.4615384615384617 14.618844696969695  3.6358173076923075 15.761126893939393  3.984375 16.88565340909091  L 5.210336538461538 17.09872159090909  C 5.618990384615385 16.388494318181817  6.177884615384616 15.823271780303028  6.887019230769231 15.40305397727273  C 7.596153846153848 14.982836174242422  8.377403846153848 14.77272727272727  9.230769230769232 14.77272727272727  L 9.230769230769232 14.204545454545453  C 9.230769230769232 14.038825757575758  9.284855769230768 13.902698863636365  9.393028846153847 13.79616477272727  C 9.501201923076923 13.689630681818182  9.639423076923078 13.636363636363635  9.807692307692308 13.636363636363635  L 10.961538461538462 13.636363636363635  C 11.129807692307693 13.636363636363635  11.268028846153847 13.689630681818182  11.376201923076923 13.79616477272727  C 11.484375 13.902698863636365  11.538461538461538 14.038825757575758  12 14.204545454545453  L 12 24.431818181818183  C 11.538461538461538 24.59753787878788  11.484375 24.733664772727273  11.376201923076923 24.840198863636363  C 11.268028846153847 24.946732954545457  11.129807692307693 25  10.961538461538462 25  L 9.807692307692308 25  C 9.639423076923078 25  9.501201923076923 24.946732954545457  9.393028846153847 24.840198863636363  C 9.284855769230768 24.733664772727273  9.230769230769232 24.59753787878788  9.230769230769232 24.431818181818183  L 9.230769230769232 23.863636363636363  C 8.173076923076923 23.863636363636363  7.232572115384616 23.54699337121212  6.4092548076923075 22.913707386363637  C 5.585937500000001 22.28042140151515  5.042067307692308 21.47253787878788  4.777644230769231 20.490056818181817  L 1.4423076923076923 19.904119318181817  L 1.0817307692307692 19.03409090909091  C 0.3605769230769231 17.282196969696965  0 15.42376893939394  0 13.458806818181818  C 0 11.671401515151514  0.4026442307692307 9.949100378787879  1.2079326923076923 8.291903409090908  C 2.0132211538461537 6.634706439393937  3.088942307692308 5.19945549242424  4.435096153846154 3.9861505681818175  C 5.78125 2.7728456439393923  7.3798076923076925 1.8051609848484835  9.230769230769232 1.0830965909090913  C 11.08173076923077 0.36103219696969613  13.004807692307693 0  15 0  C 16.99519230769231 0  18.918269230769234 0.36103219696969613  20.76923076923077 1.0830965909090913  C 22.62019230769231 1.8051609848484835  24.218750000000004 2.7728456439393923  25.564903846153847 3.9861505681818175  C 26.911057692307693 5.19945549242424  27.98677884615385 6.634706439393937  28.792067307692307 8.291903409090908  Z " fill-rule="nonzero" fill="rgba(255, 255, 255, 1)" stroke="none" transform="matrix(1 0 0 1 432 953 )" class="fill" />
    <path d="M 28.792067307692307 8.291903409090908  C 29.59735576923077 9.949100378787879  30 11.671401515151514  30 13.458806818181818  C 30 15.42376893939394  29.639423076923077 17.282196969696965  28.91826923076923 19.03409090909091  L 28.557692307692307 19.904119318181817  L 25.22235576923077 20.490056818181817  C 24.957932692307697 21.47253787878788  24.4140625 22.28042140151515  23.590745192307693 22.913707386363637  C 22.767427884615387 23.54699337121212  21.82692307692308 23.863636363636363  20.76923076923077 23.863636363636363  L 20.76923076923077 24.431818181818183  C 20.76923076923077 24.59753787878788  20.71514423076923 24.733664772727273  20.606971153846153 24.840198863636363  C 20.498798076923077 24.946732954545457  20.360576923076927 25  20.192307692307693 25  L 19.038461538461537 25  C 18.87019230769231 25  18.731971153846153 24.946732954545457  18.623798076923077 24.840198863636363  C 18.515625 24.733664772727273  18.461538461538463 24.59753787878788  18 24.431818181818183  L 18 14.204545454545453  C 18.461538461538463 14.038825757575758  18.515625 13.902698863636365  18.623798076923077 13.79616477272727  C 18.731971153846153 13.689630681818182  18.87019230769231 13.636363636363635  19.038461538461537 13.636363636363635  L 20.192307692307693 13.636363636363635  C 20.360576923076927 13.636363636363635  20.498798076923077 13.689630681818182  20.606971153846153 13.79616477272727  C 20.71514423076923 13.902698863636365  20.76923076923077 14.038825757575758  20.76923076923077 14.204545454545453  L 20.76923076923077 14.77272727272727  C 21.622596153846157 14.77272727272727  22.403846153846153 14.982836174242422  23.11298076923077 15.40305397727273  C 23.822115384615387 15.823271780303028  24.381009615384617 16.388494318181817  24.789663461538463 17.09872159090909  L 26.015625 16.88565340909091  C 26.364182692307697 15.761126893939393  26.538461538461537 14.618844696969695  26.538461538461537 13.458806818181818  C 26.538461538461537 11.706912878787879  26.009615384615387 10.055634469696969  24.951923076923077 8.504971590909092  C 23.89423076923077 6.954308712121213  22.47295673076923 5.717329545454544  20.688100961538463 4.794034090909091  C 18.903245192307693 3.8707386363636354  17.00721153846154 3.4090909090909087  15 3.4090909090909087  C 12.992788461538463 3.4090909090909087  11.096754807692308 3.8707386363636354  9.311899038461538 4.794034090909091  C 7.527043269230768 5.717329545454544  6.105769230769231 6.954308712121213  5.048076923076923 8.504971590909092  C 3.9903846153846154 10.055634469696969  3.4615384615384617 11.706912878787879  3.4615384615384617 13.458806818181818  C 3.4615384615384617 14.618844696969695  3.6358173076923075 15.761126893939393  3.984375 16.88565340909091  L 5.210336538461538 17.09872159090909  C 5.618990384615385 16.388494318181817  6.177884615384616 15.823271780303028  6.887019230769231 15.40305397727273  C 7.596153846153848 14.982836174242422  8.377403846153848 14.77272727272727  9.230769230769232 14.77272727272727  L 9.230769230769232 14.204545454545453  C 9.230769230769232 14.038825757575758  9.284855769230768 13.902698863636365  9.393028846153847 13.79616477272727  C 9.501201923076923 13.689630681818182  9.639423076923078 13.636363636363635  9.807692307692308 13.636363636363635  L 10.961538461538462 13.636363636363635  C 11.129807692307693 13.636363636363635  11.268028846153847 13.689630681818182  11.376201923076923 13.79616477272727  C 11.484375 13.902698863636365  11.538461538461538 14.038825757575758  12 14.204545454545453  L 12 24.431818181818183  C 11.538461538461538 24.59753787878788  11.484375 24.733664772727273  11.376201923076923 24.840198863636363  C 11.268028846153847 24.946732954545457  11.129807692307693 25  10.961538461538462 25  L 9.807692307692308 25  C 9.639423076923078 25  9.501201923076923 24.946732954545457  9.393028846153847 24.840198863636363  C 9.284855769230768 24.733664772727273  9.230769230769232 24.59753787878788  9.230769230769232 24.431818181818183  L 9.230769230769232 23.863636363636363  C 8.173076923076923 23.863636363636363  7.232572115384616 23.54699337121212  6.4092548076923075 22.913707386363637  C 5.585937500000001 22.28042140151515  5.042067307692308 21.47253787878788  4.777644230769231 20.490056818181817  L 1.4423076923076923 19.904119318181817  L 1.0817307692307692 19.03409090909091  C 0.3605769230769231 17.282196969696965  0 15.42376893939394  0 13.458806818181818  C 0 11.671401515151514  0.4026442307692307 9.949100378787879  1.2079326923076923 8.291903409090908  C 2.0132211538461537 6.634706439393937  3.088942307692308 5.19945549242424  4.435096153846154 3.9861505681818175  C 5.78125 2.7728456439393923  7.3798076923076925 1.8051609848484835  9.230769230769232 1.0830965909090913  C 11.08173076923077 0.36103219696969613  13.004807692307693 0  15 0  C 16.99519230769231 0  18.918269230769234 0.36103219696969613  20.76923076923077 1.0830965909090913  C 22.62019230769231 1.8051609848484835  24.218750000000004 2.7728456439393923  25.564903846153847 3.9861505681818175  C 26.911057692307693 5.19945549242424  27.98677884615385 6.634706439393937  28.792067307692307 8.291903409090908  Z " stroke-width="0" stroke-dasharray="0" stroke="rgba(255, 255, 255, 0)" fill="none" transform="matrix(1 0 0 1 432 953 )" class="stroke" mask="url(#Clip123)" />
  </g>
</svg>