<?xml version="1.0" encoding="utf-8"?>
<svg version="1.1" xmlns:xlink="http://www.w3.org/1999/xlink" width="430px" height="17px" xmlns="http://www.w3.org/2000/svg">
  <defs>
    <linearGradient gradientUnits="userSpaceOnUse" x1="0.5690281282698346" y1="7.872619047619057" x2="428.44289202109115" y2="7.872619047619057" id="LinearGradient20">
      <stop id="Stop21" stop-color="#1e98d7" stop-opacity="0" offset="0" />
      <stop id="Stop22" stop-color="#00ffff" stop-opacity="0.5372549019607843" offset="0.25" />
      <stop id="Stop23" stop-color="#02a7f0" stop-opacity="0.9921568627450981" offset="0.5" />
      <stop id="Stop24" stop-color="#80ffff" stop-opacity="0.5372549019607843" offset="0.83" />
      <stop id="Stop25" stop-color="#1e98d7" stop-opacity="0" offset="1" />
    </linearGradient>
    <pattern id="BGPattern" patternUnits="userSpaceOnUse" alignment="0 0" imageRepeat="None" />
    <mask fill="white" id="Clip26">
      <path d="M 0 11.999999999999998  L 0 5  C 0 2.1999999999999997  2.1999999999999997 0  5 0  L 425 0  C 427.8 0  430 2.1999999999999997  430 5  L 430 11.999999999999998  C 430 14.8  427.8 17  425 17  L 5 17  C 2.1999999999999997 17  0 14.8  0 11.999999999999998  Z " fill-rule="evenodd" />
    </mask>
  </defs>
  <g transform="matrix(1 0 0 1 -37 -401 )">
    <path d="M 0 11.999999999999998  L 0 5  C 0 2.1999999999999997  2.1999999999999997 0  5 0  L 425 0  C 427.8 0  430 2.1999999999999997  430 5  L 430 11.999999999999998  C 430 14.8  427.8 17  425 17  L 5 17  C 2.1999999999999997 17  0 14.8  0 11.999999999999998  Z " fill-rule="nonzero" fill="url(#LinearGradient20)" stroke="none" transform="matrix(1 0 0 1 37 401 )" class="fill" />
    <path d="M 0 11.999999999999998  L 0 5  C 0 2.1999999999999997  2.1999999999999997 0  5 0  L 425 0  C 427.8 0  430 2.1999999999999997  430 5  L 430 11.999999999999998  C 430 14.8  427.8 17  425 17  L 5 17  C 2.1999999999999997 17  0 14.8  0 11.999999999999998  Z " stroke-width="0" stroke-dasharray="0" stroke="rgba(121, 121, 121, 1)" fill="none" transform="matrix(1 0 0 1 37 401 )" class="stroke" mask="url(#Clip26)" />
  </g>
</svg>