<?xml version="1.0" encoding="utf-8"?>
<svg version="1.1" xmlns:xlink="http://www.w3.org/1999/xlink" width="70px" height="70px" xmlns="http://www.w3.org/2000/svg">
  <defs>
    <pattern id="BGPattern" patternUnits="userSpaceOnUse" alignment="0 0" imageRepeat="None" />
    <mask fill="white" id="Clip78">
      <path d="M 0 35  C 0 15.399999999999999  15.399999999999999 0  35 0  C 54.6 0  70 15.399999999999999  70 35  C 70 54.6  54.6 70  35 70  C 15.399999999999999 70  0 54.6  0 35  Z " fill-rule="evenodd" />
    </mask>
  </defs>
  <g transform="matrix(1 0 0 1 -61 -662 )">
    <path d="M 0 35  C 0 15.399999999999999  15.399999999999999 0  35 0  C 54.6 0  70 15.399999999999999  70 35  C 70 54.6  54.6 70  35 70  C 15.399999999999999 70  0 54.6  0 35  Z " fill-rule="nonzero" fill="rgba(0, 0, 170, 0.35294117647058826)" stroke="none" transform="matrix(1 0 0 1 61 662 )" class="fill" />
    <path d="M 0 35  C 0 15.399999999999999  15.399999999999999 0  35 0  C 54.6 0  70 15.399999999999999  70 35  C 70 54.6  54.6 70  35 70  C 15.399999999999999 70  0 54.6  0 35  Z " stroke-width="0" stroke-dasharray="0" stroke="rgba(121, 121, 121, 1)" fill="none" transform="matrix(1 0 0 1 61 662 )" class="stroke" mask="url(#Clip78)" />
  </g>
</svg>