<?xml version="1.0" encoding="utf-8"?>
<svg version="1.1" xmlns:xlink="http://www.w3.org/1999/xlink" width="16px" height="9px" xmlns="http://www.w3.org/2000/svg">
  <defs>
    <pattern id="BGPattern" patternUnits="userSpaceOnUse" alignment="0 0" imageRepeat="None" />
    <mask fill="white" id="Clip536">
      <path d="M 15.839679358717435 0.9278350515463915  C 15.946559786239145 1.0309278350515436  16 1.1494845360824733  16 1.2835051546391756  C 16 1.4175257731958752  15.946559786239145 1.5360824742268027  15.839679358717435 1.639175257731959  L 8.3687374749499 8.845360824742267  C 8.26185704742819 8.94845360824742  8.138944555778224 9  8 9  C 7.861055444221778 9  7.7381429525718115 8.94845360824742  7.6312625250501 8.845360824742267  L 0.16032064128256512 1.639175257731959  C 0.0534402137608552 1.5360824742268027  0 1.4175257731958752  0 1.2835051546391756  C 0 1.1494845360824733  0.0534402137608552 1.0309278350515436  0.16032064128256512 0.9278350515463915  L 0.9619238476953907 0.1546391752577324  C 1.0688042752171012 0.05154639175257614  1.1917167668670676 0  1.3306613226452906 0  C 1.469605878423514 0  1.5925183700734804 0.05154639175257614  1.6993987975951903 0.1546391752577324  L 8 6.231958762886598  L 14.30060120240481 0.1546391752577324  C 14.40748162992652 0.05154639175257614  14.530394121576487 0  14.669338677354709 0  C 14.808283233132935 0  14.931195724782901 0.05154639175257614  15.03807615230461 0.1546391752577324  L 15.839679358717435 0.9278350515463915  Z " fill-rule="evenodd" />
    </mask>
  </defs>
  <g transform="matrix(1 0 0 1 -1064 -1351 )">
    <path d="M 15.839679358717435 0.9278350515463915  C 15.946559786239145 1.0309278350515436  16 1.1494845360824733  16 1.2835051546391756  C 16 1.4175257731958752  15.946559786239145 1.5360824742268027  15.839679358717435 1.639175257731959  L 8.3687374749499 8.845360824742267  C 8.26185704742819 8.94845360824742  8.138944555778224 9  8 9  C 7.861055444221778 9  7.7381429525718115 8.94845360824742  7.6312625250501 8.845360824742267  L 0.16032064128256512 1.639175257731959  C 0.0534402137608552 1.5360824742268027  0 1.4175257731958752  0 1.2835051546391756  C 0 1.1494845360824733  0.0534402137608552 1.0309278350515436  0.16032064128256512 0.9278350515463915  L 0.9619238476953907 0.1546391752577324  C 1.0688042752171012 0.05154639175257614  1.1917167668670676 0  1.3306613226452906 0  C 1.469605878423514 0  1.5925183700734804 0.05154639175257614  1.6993987975951903 0.1546391752577324  L 8 6.231958762886598  L 14.30060120240481 0.1546391752577324  C 14.40748162992652 0.05154639175257614  14.530394121576487 0  14.669338677354709 0  C 14.808283233132935 0  14.931195724782901 0.05154639175257614  15.03807615230461 0.1546391752577324  L 15.839679358717435 0.9278350515463915  Z " fill-rule="nonzero" fill="rgba(0, 0, 0, 1)" stroke="none" transform="matrix(1 0 0 1 1064 1351 )" class="fill" />
    <path d="M 15.839679358717435 0.9278350515463915  C 15.946559786239145 1.0309278350515436  16 1.1494845360824733  16 1.2835051546391756  C 16 1.4175257731958752  15.946559786239145 1.5360824742268027  15.839679358717435 1.639175257731959  L 8.3687374749499 8.845360824742267  C 8.26185704742819 8.94845360824742  8.138944555778224 9  8 9  C 7.861055444221778 9  7.7381429525718115 8.94845360824742  7.6312625250501 8.845360824742267  L 0.16032064128256512 1.639175257731959  C 0.0534402137608552 1.5360824742268027  0 1.4175257731958752  0 1.2835051546391756  C 0 1.1494845360824733  0.0534402137608552 1.0309278350515436  0.16032064128256512 0.9278350515463915  L 0.9619238476953907 0.1546391752577324  C 1.0688042752171012 0.05154639175257614  1.1917167668670676 0  1.3306613226452906 0  C 1.469605878423514 0  1.5925183700734804 0.05154639175257614  1.6993987975951903 0.1546391752577324  L 8 6.231958762886598  L 14.30060120240481 0.1546391752577324  C 14.40748162992652 0.05154639175257614  14.530394121576487 0  14.669338677354709 0  C 14.808283233132935 0  14.931195724782901 0.05154639175257614  15.03807615230461 0.1546391752577324  L 15.839679358717435 0.9278350515463915  Z " stroke-width="0" stroke-dasharray="0" stroke="rgba(255, 255, 255, 0)" fill="none" transform="matrix(1 0 0 1 1064 1351 )" class="stroke" mask="url(#Clip536)" />
  </g>
</svg>