<?xml version="1.0" encoding="utf-8"?>
<svg version="1.1" xmlns:xlink="http://www.w3.org/1999/xlink" width="10px" height="33px" preserveAspectRatio="xMidYMin meet" viewBox="475.3406593406601 1844 8 33" xmlns="http://www.w3.org/2000/svg">
  <path d="M 177 1872  L 474.3406593406601 1872  A 5 5 0 0 0 479.3406593406601 1867 L 479.3406593406601 1854  A 5 5 0 0 1 484.3406593406601 1849 L 701 1849  " stroke-width="2" stroke-dasharray="0" stroke="rgba(88, 0, 170, 1)" fill="none" class="stroke" />
  <path d="M 178.5 1868.5  A 3.5 3.5 0 0 0 175 1872 A 3.5 3.5 0 0 0 178.5 1875.5 A 3.5 3.5 0 0 0 182 1872 A 3.5 3.5 0 0 0 178.5 1868.5 Z M 700 1856.6  L 707 1849  L 700 1841.4  L 700 1856.6  Z " fill-rule="nonzero" fill="rgba(88, 0, 170, 1)" stroke="none" class="fill" />
</svg>