<?xml version="1.0" encoding="utf-8"?>
<svg version="1.1" xmlns:xlink="http://www.w3.org/1999/xlink" width="23px" height="15px" xmlns="http://www.w3.org/2000/svg">
  <defs>
    <pattern id="BGPattern" patternUnits="userSpaceOnUse" alignment="0 0" imageRepeat="None" />
    <mask fill="white" id="Clip151">
      <path d="M 9.200000000000001 9.375  L 9.200000000000001 10.5  L 13.799999999999999 10.5  L 13.799999999999999 9.375  L 12.266666666666666 9.375  L 12.266666666666666 4.125  L 10.901041666666666 4.125  L 9.128124999999999 5.730468750000001  L 10.050520833333334 6.667968750000001  C 10.385937499999999 6.378906249999999  10.605555555555556 6.15625  10.709375 6  L 10.733333333333334 6  L 10.733333333333334 9.375  L 9.200000000000001 9.375  Z M 15.081770833333334 5.8359375  C 15.249479166666665 6.398437499999999  15.333333333333332 6.953124999999999  15.333333333333332 7.5  C 15.333333333333332 8.046874999999998  15.249479166666665 8.6015625  15.081770833333334 9.1640625  C 14.9140625 9.7265625  14.676475694444445 10.249999999999998  14.369010416666667 10.734375  C 14.06154513888889 11.218749999999998  13.65625 11.61328125  13.153125000000001 11.91796875  C 12.65 12.22265625  12.098958333333336 12.375  11.5 12.375  C 10.901041666666668 12.375  10.350000000000001 12.22265625  9.846874999999999 11.91796875  C 9.34375 11.61328125  8.938454861111111 11.218749999999998  8.630989583333333 10.734375  C 8.323524305555555 10.249999999999998  8.0859375 9.7265625  7.918229166666667 9.1640625  C 7.750520833333333 8.6015625  7.666666666666666 8.046874999999998  7.666666666666666 7.5  C 7.666666666666666 6.953124999999999  7.750520833333333 6.398437499999999  7.918229166666667 5.8359375  C 8.0859375 5.2734375  8.323524305555555 4.75  8.630989583333333 4.265625000000001  C 8.938454861111111 3.7812499999999982  9.34375 3.386718749999999  9.846874999999999 3.0820312499999996  C 10.350000000000001 2.7773437500000004  10.901041666666668 2.625000000000001  11.5 2.625000000000001  C 12.098958333333336 2.625000000000001  12.65 2.7773437500000004  13.153125000000001 3.0820312499999996  C 13.65625 3.386718749999999  14.06154513888889 3.7812499999999982  14.369010416666667 4.265625000000001  C 14.676475694444445 4.75  14.9140625 5.2734375  15.081770833333334 5.8359375  Z M 19.298437500000002 11.37890625  C 19.897395833333334 10.79296875  20.62013888888889 10.5  21.46666666666667 10.5  L 21.46666666666667 4.500000000000001  C 20.62013888888889 4.500000000000001  19.897395833333334 4.207031250000001  19.298437500000002 3.621093750000001  C 18.699479166666666 3.035156250000001  18.400000000000002 2.3281249999999973  18.400000000000002 1.4999999999999996  L 4.6000000000000005 1.4999999999999996  C 4.6000000000000005 2.3281249999999973  4.300520833333334 3.035156250000001  3.7015625 3.621093750000001  C 3.1026041666666666 4.207031250000001  2.3798611111111114 4.500000000000001  1.5333333333333332 4.500000000000001  L 1.5333333333333332 10.5  C 2.3798611111111114 10.5  3.1026041666666666 10.79296875  3.7015625 11.37890625  C 4.300520833333334 11.96484375  4.6000000000000005 12.671875  4.6000000000000005 13.5  L 18.400000000000002 13.5  C 18.400000000000002 12.671875  18.699479166666666 11.96484375  19.298437500000002 11.37890625  Z M 22.772395833333334 0.22265625000000067  C 22.924131944444447 0.3710937499999989  23.000000000000004 0.5468749999999989  23 0.7500000000000007  L 23 14.25  C 23.000000000000004 14.453125  22.924131944444447 14.62890625  22.772395833333334 14.77734375  C 22.620659722222225 14.92578125  22.440972222222225 15  22.233333333333334 15  L 0.7666666666666666 15  C 0.5590277777777779 15  0.3793402777777778 14.92578125  0.22760416666666666 14.77734375  C 0.07586805555555555 14.62890625  0 14.453125  0 14.25  L 0 0.7500000000000007  C 0 0.5468749999999989  0.07586805555555555 0.3710937499999989  0.22760416666666666 0.22265625000000067  C 0.3793402777777778 0.07421874999999911  0.5590277777777779 0  0.7666666666666666 0  L 22.233333333333334 0  C 22.440972222222225 0  22.620659722222225 0.07421874999999911  22.772395833333334 0.22265625000000067  Z " fill-rule="evenodd" />
    </mask>
  </defs>
  <g transform="matrix(1 0 0 1 -635 -563 )">
    <path d="M 9.200000000000001 9.375  L 9.200000000000001 10.5  L 13.799999999999999 10.5  L 13.799999999999999 9.375  L 12.266666666666666 9.375  L 12.266666666666666 4.125  L 10.901041666666666 4.125  L 9.128124999999999 5.730468750000001  L 10.050520833333334 6.667968750000001  C 10.385937499999999 6.378906249999999  10.605555555555556 6.15625  10.709375 6  L 10.733333333333334 6  L 10.733333333333334 9.375  L 9.200000000000001 9.375  Z M 15.081770833333334 5.8359375  C 15.249479166666665 6.398437499999999  15.333333333333332 6.953124999999999  15.333333333333332 7.5  C 15.333333333333332 8.046874999999998  15.249479166666665 8.6015625  15.081770833333334 9.1640625  C 14.9140625 9.7265625  14.676475694444445 10.249999999999998  14.369010416666667 10.734375  C 14.06154513888889 11.218749999999998  13.65625 11.61328125  13.153125000000001 11.91796875  C 12.65 12.22265625  12.098958333333336 12.375  11.5 12.375  C 10.901041666666668 12.375  10.350000000000001 12.22265625  9.846874999999999 11.91796875  C 9.34375 11.61328125  8.938454861111111 11.218749999999998  8.630989583333333 10.734375  C 8.323524305555555 10.249999999999998  8.0859375 9.7265625  7.918229166666667 9.1640625  C 7.750520833333333 8.6015625  7.666666666666666 8.046874999999998  7.666666666666666 7.5  C 7.666666666666666 6.953124999999999  7.750520833333333 6.398437499999999  7.918229166666667 5.8359375  C 8.0859375 5.2734375  8.323524305555555 4.75  8.630989583333333 4.265625000000001  C 8.938454861111111 3.7812499999999982  9.34375 3.386718749999999  9.846874999999999 3.0820312499999996  C 10.350000000000001 2.7773437500000004  10.901041666666668 2.625000000000001  11.5 2.625000000000001  C 12.098958333333336 2.625000000000001  12.65 2.7773437500000004  13.153125000000001 3.0820312499999996  C 13.65625 3.386718749999999  14.06154513888889 3.7812499999999982  14.369010416666667 4.265625000000001  C 14.676475694444445 4.75  14.9140625 5.2734375  15.081770833333334 5.8359375  Z M 19.298437500000002 11.37890625  C 19.897395833333334 10.79296875  20.62013888888889 10.5  21.46666666666667 10.5  L 21.46666666666667 4.500000000000001  C 20.62013888888889 4.500000000000001  19.897395833333334 4.207031250000001  19.298437500000002 3.621093750000001  C 18.699479166666666 3.035156250000001  18.400000000000002 2.3281249999999973  18.400000000000002 1.4999999999999996  L 4.6000000000000005 1.4999999999999996  C 4.6000000000000005 2.3281249999999973  4.300520833333334 3.035156250000001  3.7015625 3.621093750000001  C 3.1026041666666666 4.207031250000001  2.3798611111111114 4.500000000000001  1.5333333333333332 4.500000000000001  L 1.5333333333333332 10.5  C 2.3798611111111114 10.5  3.1026041666666666 10.79296875  3.7015625 11.37890625  C 4.300520833333334 11.96484375  4.6000000000000005 12.671875  4.6000000000000005 13.5  L 18.400000000000002 13.5  C 18.400000000000002 12.671875  18.699479166666666 11.96484375  19.298437500000002 11.37890625  Z M 22.772395833333334 0.22265625000000067  C 22.924131944444447 0.3710937499999989  23.000000000000004 0.5468749999999989  23 0.7500000000000007  L 23 14.25  C 23.000000000000004 14.453125  22.924131944444447 14.62890625  22.772395833333334 14.77734375  C 22.620659722222225 14.92578125  22.440972222222225 15  22.233333333333334 15  L 0.7666666666666666 15  C 0.5590277777777779 15  0.3793402777777778 14.92578125  0.22760416666666666 14.77734375  C 0.07586805555555555 14.62890625  0 14.453125  0 14.25  L 0 0.7500000000000007  C 0 0.5468749999999989  0.07586805555555555 0.3710937499999989  0.22760416666666666 0.22265625000000067  C 0.3793402777777778 0.07421874999999911  0.5590277777777779 0  0.7666666666666666 0  L 22.233333333333334 0  C 22.440972222222225 0  22.620659722222225 0.07421874999999911  22.772395833333334 0.22265625000000067  Z " fill-rule="nonzero" fill="rgba(1, 111, 160, 1)" stroke="none" transform="matrix(1 0 0 1 635 563 )" class="fill" />
    <path d="M 9.200000000000001 9.375  L 9.200000000000001 10.5  L 13.799999999999999 10.5  L 13.799999999999999 9.375  L 12.266666666666666 9.375  L 12.266666666666666 4.125  L 10.901041666666666 4.125  L 9.128124999999999 5.730468750000001  L 10.050520833333334 6.667968750000001  C 10.385937499999999 6.378906249999999  10.605555555555556 6.15625  10.709375 6  L 10.733333333333334 6  L 10.733333333333334 9.375  L 9.200000000000001 9.375  Z " stroke-width="0" stroke-dasharray="0" stroke="rgba(255, 255, 255, 0)" fill="none" transform="matrix(1 0 0 1 635 563 )" class="stroke" mask="url(#Clip151)" />
    <path d="M 15.081770833333334 5.8359375  C 15.249479166666665 6.398437499999999  15.333333333333332 6.953124999999999  15.333333333333332 7.5  C 15.333333333333332 8.046874999999998  15.249479166666665 8.6015625  15.081770833333334 9.1640625  C 14.9140625 9.7265625  14.676475694444445 10.249999999999998  14.369010416666667 10.734375  C 14.06154513888889 11.218749999999998  13.65625 11.61328125  13.153125000000001 11.91796875  C 12.65 12.22265625  12.098958333333336 12.375  11.5 12.375  C 10.901041666666668 12.375  10.350000000000001 12.22265625  9.846874999999999 11.91796875  C 9.34375 11.61328125  8.938454861111111 11.218749999999998  8.630989583333333 10.734375  C 8.323524305555555 10.249999999999998  8.0859375 9.7265625  7.918229166666667 9.1640625  C 7.750520833333333 8.6015625  7.666666666666666 8.046874999999998  7.666666666666666 7.5  C 7.666666666666666 6.953124999999999  7.750520833333333 6.398437499999999  7.918229166666667 5.8359375  C 8.0859375 5.2734375  8.323524305555555 4.75  8.630989583333333 4.265625000000001  C 8.938454861111111 3.7812499999999982  9.34375 3.386718749999999  9.846874999999999 3.0820312499999996  C 10.350000000000001 2.7773437500000004  10.901041666666668 2.625000000000001  11.5 2.625000000000001  C 12.098958333333336 2.625000000000001  12.65 2.7773437500000004  13.153125000000001 3.0820312499999996  C 13.65625 3.386718749999999  14.06154513888889 3.7812499999999982  14.369010416666667 4.265625000000001  C 14.676475694444445 4.75  14.9140625 5.2734375  15.081770833333334 5.8359375  Z " stroke-width="0" stroke-dasharray="0" stroke="rgba(255, 255, 255, 0)" fill="none" transform="matrix(1 0 0 1 635 563 )" class="stroke" mask="url(#Clip151)" />
    <path d="M 19.298437500000002 11.37890625  C 19.897395833333334 10.79296875  20.62013888888889 10.5  21.46666666666667 10.5  L 21.46666666666667 4.500000000000001  C 20.62013888888889 4.500000000000001  19.897395833333334 4.207031250000001  19.298437500000002 3.621093750000001  C 18.699479166666666 3.035156250000001  18.400000000000002 2.3281249999999973  18.400000000000002 1.4999999999999996  L 4.6000000000000005 1.4999999999999996  C 4.6000000000000005 2.3281249999999973  4.300520833333334 3.035156250000001  3.7015625 3.621093750000001  C 3.1026041666666666 4.207031250000001  2.3798611111111114 4.500000000000001  1.5333333333333332 4.500000000000001  L 1.5333333333333332 10.5  C 2.3798611111111114 10.5  3.1026041666666666 10.79296875  3.7015625 11.37890625  C 4.300520833333334 11.96484375  4.6000000000000005 12.671875  4.6000000000000005 13.5  L 18.400000000000002 13.5  C 18.400000000000002 12.671875  18.699479166666666 11.96484375  19.298437500000002 11.37890625  Z " stroke-width="0" stroke-dasharray="0" stroke="rgba(255, 255, 255, 0)" fill="none" transform="matrix(1 0 0 1 635 563 )" class="stroke" mask="url(#Clip151)" />
    <path d="M 22.772395833333334 0.22265625000000067  C 22.924131944444447 0.3710937499999989  23.000000000000004 0.5468749999999989  23 0.7500000000000007  L 23 14.25  C 23.000000000000004 14.453125  22.924131944444447 14.62890625  22.772395833333334 14.77734375  C 22.620659722222225 14.92578125  22.440972222222225 15  22.233333333333334 15  L 0.7666666666666666 15  C 0.5590277777777779 15  0.3793402777777778 14.92578125  0.22760416666666666 14.77734375  C 0.07586805555555555 14.62890625  0 14.453125  0 14.25  L 0 0.7500000000000007  C 0 0.5468749999999989  0.07586805555555555 0.3710937499999989  0.22760416666666666 0.22265625000000067  C 0.3793402777777778 0.07421874999999911  0.5590277777777779 0  0.7666666666666666 0  L 22.233333333333334 0  C 22.440972222222225 0  22.620659722222225 0.07421874999999911  22.772395833333334 0.22265625000000067  Z " stroke-width="0" stroke-dasharray="0" stroke="rgba(255, 255, 255, 0)" fill="none" transform="matrix(1 0 0 1 635 563 )" class="stroke" mask="url(#Clip151)" />
  </g>
</svg>