<?xml version="1.0" encoding="utf-8"?>
<svg version="1.1" xmlns:xlink="http://www.w3.org/1999/xlink" width="395px" height="12px" xmlns="http://www.w3.org/2000/svg">
  <defs>
    <radialGradient cx="199.32283464567035" cy="7.244094488188097" r="221.3951629748584" gradientTransform="matrix(-7.702528559839829E-16 -0.2219283276450568 1 -3.470727978520589E-15 192.0787401574824 51.47947784257394 )" gradientUnits="userSpaceOnUse" id="RadialGradient126">
      <stop id="Stop127" stop-color="#1e98d7" stop-opacity="0" offset="0" />
      <stop id="Stop128" stop-color="#7f7f7f" offset="1" />
    </radialGradient>
    <pattern id="BGPattern" patternUnits="userSpaceOnUse" alignment="0 0" imageRepeat="None" />
    <mask fill="white" id="Clip129">
      <path d="M 6 12  C 2.6399999999999997 12  0 9.36  0 6  C 0 2.6399999999999997  2.6399999999999997 0  6 0  L 389 0  C 392.36 0  395 2.6399999999999997  395 6  C 395 9.36  392.36 12  389 12  L 6 12  Z " fill-rule="evenodd" />
    </mask>
  </defs>
  <g transform="matrix(1 0 0 1 -78 -315 )">
    <path d="M 6 12  C 2.6399999999999997 12  0 9.36  0 6  C 0 2.6399999999999997  2.6399999999999997 0  6 0  L 389 0  C 392.36 0  395 2.6399999999999997  395 6  C 395 9.36  392.36 12  389 12  L 6 12  Z " fill-rule="nonzero" fill="url(#RadialGradient126)" stroke="none" transform="matrix(1 0 0 1 78 315 )" class="fill" />
    <path d="M 6 12  C 2.6399999999999997 12  0 9.36  0 6  C 0 2.6399999999999997  2.6399999999999997 0  6 0  L 389 0  C 392.36 0  395 2.6399999999999997  395 6  C 395 9.36  392.36 12  389 12  L 6 12  Z " stroke-width="0" stroke-dasharray="0" stroke="rgba(121, 121, 121, 1)" fill="none" transform="matrix(1 0 0 1 78 315 )" class="stroke" mask="url(#Clip129)" />
  </g>
</svg>